<svg width="35" height="42" viewBox="0 0 35 42" fill="none" xmlns="http://www.w3.org/2000/svg">
<path d="M17 25.6172H26" stroke="#04AFF6" stroke-width="2" stroke-linecap="round" stroke-linejoin="round"/>
<path d="M17 33.248H26" stroke="#04AFF6" stroke-width="2" stroke-linecap="round" stroke-linejoin="round"/>
<path d="M17 17.9854H26" stroke="#04AFF6" stroke-width="2" stroke-linecap="round" stroke-linejoin="round"/>
<path d="M10 26.5709C9.44771 26.5709 9 26.1438 9 25.617C9 25.0902 9.44771 24.6631 10 24.6631" stroke="#04AFF6" stroke-width="2"/>
<path d="M10 26.5709C10.5523 26.5709 11 26.1438 11 25.617C11 25.0902 10.5523 24.6631 10 24.6631" stroke="#04AFF6" stroke-width="2"/>
<path d="M10 34.2019C9.44771 34.2019 9 33.9884 9 33.725C9 33.4616 9.44771 33.248 10 33.248" stroke="#04AFF6" stroke-width="2"/>
<path d="M10 34.2019C10.5523 34.2019 11 33.9884 11 33.725C11 33.4616 10.5523 33.248 10 33.248" stroke="#04AFF6" stroke-width="2"/>
<path d="M10 17.9861C9.44771 17.9861 9 17.7726 9 17.5092C9 17.2458 9.44771 17.0322 10 17.0322" stroke="#04AFF6" stroke-width="2"/>
<path d="M10 17.9861C10.5523 17.9861 11 17.7726 11 17.5092C11 17.2458 10.5523 17.0322 10 17.0322" stroke="#04AFF6" stroke-width="2"/>
<path d="M24.375 8.28777H31.25C31.9793 8.28777 32.6789 8.56247 33.1946 9.05143C33.7103 9.54038 34 10.2036 34 10.8951V38.2717C34 38.9631 33.7103 39.6264 33.1946 40.1154C32.6789 40.6043 31.9793 40.879 31.25 40.879H3.75C3.02066 40.879 2.32117 40.6043 1.80546 40.1154C1.28974 39.6264 1 38.9631 1 38.2717V10.8951C1 10.2036 1.28974 9.54038 1.80546 9.05143C2.32117 8.56247 3.02066 8.28777 3.75 8.28777H10.625C10.625 6.55903 11.3493 4.90108 12.6386 3.67868C13.9279 2.45628 15.6766 1.76953 17.5 1.76953C19.3234 1.76953 21.0721 2.45628 22.3615 3.67868C23.6507 4.90108 24.375 6.55903 24.375 8.28777Z" stroke="#04AFF6" stroke-width="2" stroke-linecap="round" stroke-linejoin="round"/>
<path d="M17.5 8.34675C17.1203 8.34675 16.8125 8.05313 16.8125 7.69095C16.8125 7.32876 17.1203 7.03516 17.5 7.03516" stroke="#04AFF6" stroke-width="2"/>
<path d="M17.5 8.34675C17.8797 8.34675 18.1875 8.05313 18.1875 7.69095C18.1875 7.32876 17.8797 7.03516 17.5 7.03516" stroke="#04AFF6" stroke-width="2"/>
</svg>
