<svg width="44" height="45" viewBox="0 0 44 45" fill="none" xmlns="http://www.w3.org/2000/svg">
<path d="M15.647 14.4187C15.647 15.9009 16.2642 17.3223 17.363 18.3704C18.4617 19.4185 19.9519 20.0073 21.5057 20.0073C23.0596 20.0073 24.5498 19.4185 25.6485 18.3704C26.7472 17.3223 27.3645 15.9009 27.3645 14.4187C27.3645 12.9365 26.7472 11.515 25.6485 10.4669C24.5498 9.41887 23.0596 8.83008 21.5057 8.83008C19.9519 8.83008 18.4617 9.41887 17.363 10.4669C16.2642 11.515 15.647 12.9365 15.647 14.4187Z" stroke="#04AFF6" stroke-width="2" stroke-linecap="round" stroke-linejoin="round"/>
<path d="M21.5059 1.84375C25.0021 1.84375 28.355 3.16854 30.8271 5.52669C33.2993 7.88483 34.6881 11.0832 34.6881 14.4181C34.6881 20.4743 24.6657 34.0285 22.0996 37.4003C22.0312 37.4892 21.9418 37.5615 21.8387 37.6114C21.7355 37.6612 21.6215 37.6872 21.5059 37.6872C21.3903 37.6872 21.2763 37.6612 21.1731 37.6114C21.07 37.5615 20.9806 37.4892 20.9122 37.4003C18.3461 34.0285 8.32373 20.4743 8.32373 14.4181C8.32373 11.0832 9.71256 7.88483 12.1847 5.52669C14.6568 3.16854 18.0098 1.84375 21.5059 1.84375Z" stroke="#04AFF6" stroke-width="2" stroke-linecap="round" stroke-linejoin="round"/>
<path d="M33.1821 33.5762C38.5175 34.584 42.0112 36.2661 42.0112 38.17C42.0112 41.2568 32.8325 43.7586 21.5056 43.7586C10.1787 43.7586 1 41.2568 1 38.17C1 36.2699 4.47814 34.5914 9.78813 33.5818" stroke="#04AFF6" stroke-width="2" stroke-linecap="round" stroke-linejoin="round"/>
</svg>
