<svg width="46" height="44" viewBox="0 0 46 44" fill="none" xmlns="http://www.w3.org/2000/svg">
<path d="M15.6469 31.7373H3.92938C3.15246 31.7373 2.40736 32.0317 1.85799 32.5557C1.30863 33.0798 1 33.7905 1 34.5316V42.9145H15.6469V31.7373Z" stroke="#04AFF6" stroke-width="2" stroke-linecap="round"/>
<path d="M42.011 31.7373H30.2935V42.9145H44.9403V34.5316C44.9403 33.7905 44.6317 33.0798 44.0823 32.5557C43.533 32.0317 42.7879 31.7373 42.011 31.7373Z" stroke="#04AFF6" stroke-width="2" stroke-linecap="round"/>
<path d="M27.3645 20.5605H18.5763C17.7994 20.5605 17.0543 20.8549 16.505 21.379C15.9556 21.903 15.647 22.6138 15.647 23.3548V42.9149H30.2938V23.3548C30.2938 22.6138 29.9852 21.903 29.4359 21.379C28.8865 20.8549 28.1414 20.5605 27.3645 20.5605Z" stroke="#04AFF6" stroke-width="2" stroke-linecap="round"/>
<path d="M17.8438 5.89002C17.8438 7.18693 18.3839 8.43073 19.3452 9.34779C20.3066 10.2648 21.6105 10.78 22.9702 10.78C24.3298 10.78 25.6337 10.2648 26.5951 9.34779C27.5565 8.43073 28.0966 7.18693 28.0966 5.89002C28.0966 4.59311 27.5565 3.34931 26.5951 2.43225C25.6337 1.5152 24.3298 1 22.9702 1C21.6105 1 20.3066 1.5152 19.3452 2.43225C18.3839 3.34931 17.8437 4.59311 17.8438 5.89002Z" stroke="#04AFF6" stroke-width="2" stroke-linecap="round"/>
<path d="M29.3151 14.9719C28.5324 14.0954 27.5595 13.3914 26.4637 12.9086C25.3678 12.4258 24.1751 12.1758 22.9681 12.1758C21.761 12.1758 20.5683 12.4258 19.4725 12.9086C18.3766 13.3914 17.4038 14.0954 16.6211 14.9719" stroke="#04AFF6" stroke-width="2" stroke-linecap="round"/>
<path d="M33.4692 18.4652C33.4692 19.1074 33.6018 19.7433 33.8595 20.3365C34.1171 20.9298 34.4947 21.4689 34.9707 21.923C35.4468 22.3771 36.0119 22.7373 36.6339 22.983C37.2558 23.2287 37.9224 23.3552 38.5956 23.3552C39.2689 23.3552 39.9355 23.2287 40.5574 22.983C41.1794 22.7373 41.7445 22.3771 42.2206 21.923C42.6966 21.4689 43.0742 20.9298 43.3318 20.3365C43.5895 19.7433 43.722 19.1074 43.722 18.4652C43.722 17.1683 43.1819 15.9245 42.2206 15.0074C41.2592 14.0904 39.9553 13.5752 38.5956 13.5752C37.236 13.5752 35.9321 14.0904 34.9707 15.0074C34.0093 15.9245 33.4692 17.1683 33.4692 18.4652Z" stroke="#04AFF6" stroke-width="2" stroke-linecap="round"/>
<path d="M44.9405 27.5463C43.8864 26.3642 42.4921 25.5028 40.9302 25.0687C39.3682 24.6346 37.7071 24.6469 36.1523 25.1041" stroke="#04AFF6" stroke-width="2" stroke-linecap="round"/>
<path d="M2.21875 18.4652C2.21875 19.7621 2.75885 21.0059 3.72024 21.923C4.68163 22.84 5.98555 23.3552 7.34516 23.3552C8.70476 23.3552 10.0087 22.84 10.9701 21.923C11.9315 21.0059 12.4716 19.7621 12.4716 18.4652C12.4716 17.1683 11.9315 15.9245 10.9701 15.0074C10.0087 14.0904 8.70476 13.5752 7.34516 13.5752C5.98555 13.5752 4.68163 14.0904 3.72024 15.0074C2.75885 15.9245 2.21875 17.1683 2.21875 18.4652Z" stroke="#04AFF6" stroke-width="2" stroke-linecap="round"/>
<path d="M1 27.5463C1.78429 26.6716 2.75754 25.9691 3.85304 25.4868C4.94855 25.0045 6.14042 24.7538 7.34698 24.752C8.1712 24.7525 8.99071 24.8706 9.77836 25.1022" stroke="#04AFF6" stroke-width="2" stroke-linecap="round"/>
</svg>
