<svg width="25" height="25" viewBox="0 0 25 25" fill="none" xmlns="http://www.w3.org/2000/svg">
<g clip-path="url(#clip0_2063_48)">
<path d="M13.2334 18.039V22.7553C13.233 22.9027 13.2771 23.0468 13.3599 23.1688C13.4426 23.2907 13.5603 23.3849 13.6975 23.4389C13.8346 23.4929 13.9849 23.5043 14.1286 23.4715C14.2723 23.4388 14.4028 23.3634 14.5031 23.2553L23.0977 13.5024C23.3509 13.2311 23.4918 12.8738 23.4918 12.5027C23.4918 12.1317 23.3509 11.7744 23.0977 11.5031L14.5011 1.74426C14.401 1.63622 14.2705 1.5609 14.1269 1.52812C13.9833 1.49535 13.8331 1.50665 13.696 1.56054C13.5589 1.61444 13.4412 1.70843 13.3583 1.83024C13.2754 1.95205 13.2312 2.09601 13.2314 2.24334V6.95673" stroke="#0D1D38" stroke-width="1.5" stroke-linecap="round" stroke-linejoin="round"/>
<path d="M7.37354 18.039V22.7553C7.37312 22.9027 7.4172 23.0468 7.49999 23.1688C7.58279 23.2907 7.70045 23.3849 7.83761 23.4389C7.97476 23.4929 8.12503 23.5043 8.26875 23.4715C8.41248 23.4388 8.54298 23.3634 8.6432 23.2553L17.2379 13.5024C17.4911 13.2311 17.6319 12.8738 17.6319 12.5027C17.6319 12.1317 17.4911 11.7744 17.2379 11.5031L8.64125 1.74426C8.54109 1.63622 8.41067 1.5609 8.26704 1.52812C8.12341 1.49535 7.97323 1.50665 7.83611 1.56054C7.699 1.61444 7.58132 1.70843 7.49845 1.83024C7.41558 1.95205 7.37137 2.09601 7.37158 2.24334V6.95673" stroke="#04AFF6" stroke-width="1.5" stroke-linecap="round" stroke-linejoin="round"/>
<path d="M1.51343 2.24529C1.51321 2.09797 1.55743 1.954 1.6403 1.83219C1.72317 1.71038 1.84085 1.61639 1.97796 1.56249C2.11507 1.5086 2.26525 1.4973 2.40889 1.53008C2.55252 1.56285 2.68293 1.63818 2.7831 1.74622L11.3778 11.5002C11.631 11.7715 11.7718 12.1287 11.7718 12.4998C11.7718 12.8709 11.631 13.2281 11.3778 13.4994L2.7831 23.2524C2.68288 23.3605 2.55238 23.4359 2.40865 23.4686C2.26492 23.5014 2.11466 23.49 1.9775 23.436C1.84035 23.3819 1.72268 23.2878 1.63989 23.1658C1.55709 23.0439 1.51302 22.8998 1.51343 22.7524V2.24529Z" stroke="#0D1D38" stroke-width="1.5" stroke-linecap="round" stroke-linejoin="round"/>
</g>
<defs>
<clipPath id="clip0_2063_48">
<rect width="25" height="25" fill="white"/>
</clipPath>
</defs>
</svg>
