<svg width="24" height="24" viewBox="0 0 24 24" fill="none" xmlns="http://www.w3.org/2000/svg">
<path d="M8.32507 18.5801H2.65747" stroke="#0D1D38" stroke-width="1.5" stroke-linecap="round" stroke-linejoin="round"/>
<path d="M20.045 8.325V5.395C20.045 5.00646 19.8907 4.63383 19.6159 4.35909C19.3412 4.08435 18.9685 3.93 18.58 3.93H8.325V2.465C8.325 2.07646 8.17065 1.70383 7.89591 1.42909C7.62117 1.15435 7.24854 1 6.86 1H2.465C2.07646 1 1.70383 1.15435 1.42909 1.42909C1.15435 1.70383 1 2.07646 1 2.465V16.9197C1.00551 17.3186 1.15448 17.7022 1.41966 18.0003C1.68483 18.2984 2.04847 18.491 2.44404 18.5429C2.8396 18.5949 3.24065 18.5026 3.57378 18.2831C3.90691 18.0636 4.14986 17.7314 4.25816 17.3474L6.5543 9.38371C6.64244 9.07836 6.82749 8.80995 7.08154 8.61897C7.33558 8.428 7.64484 8.32482 7.96266 8.325H21.51C21.7346 8.32492 21.9561 8.37647 22.1576 8.47567C22.3591 8.57486 22.5351 8.71904 22.6719 8.89707C22.8088 9.0751 22.9029 9.28222 22.947 9.50241C22.9911 9.72261 22.984 9.94999 22.9262 10.167" stroke="#0D1D38" stroke-width="1.5" stroke-linecap="round" stroke-linejoin="round"/>
<path d="M10.5361 15.6646C10.5361 16.338 10.6688 17.0047 10.9264 17.6268C11.1841 18.2489 11.5618 18.8142 12.0379 19.2903C12.5141 19.7664 13.0793 20.1441 13.7014 20.4018C14.3235 20.6595 14.9903 20.7921 15.6636 20.7921C16.337 20.7921 17.0037 20.6595 17.6258 20.4018C18.2479 20.1441 18.8132 19.7664 19.2893 19.2903C19.7655 18.8142 20.1431 18.2489 20.4008 17.6268C20.6585 17.0047 20.7911 16.338 20.7911 15.6646C20.7911 14.9913 20.6585 14.3245 20.4008 13.7024C20.1431 13.0803 19.7655 12.5151 19.2893 12.0389C18.8132 11.5628 18.2479 11.1851 17.6258 10.9274C17.0037 10.6697 16.337 10.5371 15.6636 10.5371C14.9903 10.5371 14.3235 10.6697 13.7014 10.9274C13.0793 11.1851 12.5141 11.5628 12.0379 12.0389C11.5618 12.5151 11.1841 13.0803 10.9264 13.7024C10.6688 14.3245 10.5361 14.9913 10.5361 15.6646Z" stroke="#04AFF6" stroke-width="1.5" stroke-linecap="round" stroke-linejoin="round"/>
<path d="M22.975 22.975L19.2891 19.2891" stroke="#04AFF6" stroke-width="1.5" stroke-linecap="round" stroke-linejoin="round"/>
</svg>
