<svg width="1146" height="200" viewBox="0 0 1146 200" fill="none" xmlns="http://www.w3.org/2000/svg">
<rect width="1146" height="200" fill="#FAFAF2"/>
<mask id="mask0_2061_34" style="mask-type:alpha" maskUnits="userSpaceOnUse" x="825" y="0" width="254" height="82">
<rect x="825.273" width="253.727" height="81.9949" fill="#D9D9D9"/>
</mask>
<g mask="url(#mask0_2061_34)">
</g>
<g style="mix-blend-mode:plus-lighter" clip-path="url(#clip0_2061_34)">
<g clip-path="url(#clip1_2061_34)">
<path d="M919.262 160.635C865.165 160.442 820.682 189.934 816.022 227.658C815.599 231.068 819.445 234.011 824.227 234.028L1013.67 234.703C1018.45 234.72 1022.32 231.804 1021.92 228.392C1017.58 190.635 973.256 160.827 919.21 160.635L919.262 160.635Z" fill="#2B3990"/>
<path d="M901.662 149.946C941.797 157.436 982.733 141.969 997.125 114.95C998.834 111.72 996.07 108.168 991.393 107.277L852.283 81.3729C847.607 80.4816 842.765 82.6509 842.085 86.0596C836.326 114.684 861.527 142.456 901.662 149.946Z" fill="#2B3990"/>
<path d="M931.523 82.2232C953.134 78.4518 966.715 62.7129 964.874 45.3447C964.476 41.5823 959.755 38.8541 955.278 39.6691L882.521 52.3108C877.993 53.0818 875.766 57.3596 877.914 60.8221C887.782 76.6445 910.015 85.995 931.472 82.2667L931.523 82.2232Z" fill="#2B3990"/>
</g>
</g>
<defs>
<clipPath id="clip0_2061_34">
<rect width="307" height="190.909" fill="white" transform="translate(753 9.08984)"/>
</clipPath>
<clipPath id="clip1_2061_34">
<rect width="206" height="195" fill="white" transform="translate(816.695 39) rotate(0.204163)"/>
</clipPath>
</defs>
</svg>
