<svg width="24" height="24" viewBox="0 0 24 24" fill="none" xmlns="http://www.w3.org/2000/svg">
<path d="M19.0545 8.68211V2.64132C19.0545 2.20601 18.8815 1.78853 18.5737 1.48073C18.2659 1.17292 17.8484 1 17.4131 1H4.28264C3.84733 1 3.42985 1.17292 3.12204 1.48073C2.81424 1.78853 2.64132 2.20601 2.64132 2.64132V12.4892L1 17.4131L5.51239 15.9086H7.44504" stroke="#0D1D38" stroke-width="1.5" stroke-linecap="round" stroke-linejoin="round"/>
<path d="M17.9421 21.1932L22.5661 22.5143L21.9055 18.5509V13.2664C21.9055 12.9161 21.7664 12.58 21.5186 12.3323C21.2708 12.0845 20.9348 11.9453 20.5844 11.9453H11.9972C11.6467 11.9453 11.3108 12.0845 11.063 12.3323C10.8152 12.58 10.676 12.9161 10.676 13.2664V19.872C10.676 20.2225 10.8152 20.5584 11.063 20.8062C11.3108 21.054 11.6467 21.1932 11.9972 21.1932H17.9421Z" stroke="#0D1D38" stroke-width="1.5" stroke-linecap="round" stroke-linejoin="round"/>
<path d="M16.1602 14.3477V18.6336" stroke="#04AFF6" stroke-width="1.5" stroke-linecap="round" stroke-linejoin="round"/>
<path d="M14.0173 16.4902H18.3033" stroke="#04AFF6" stroke-width="1.5" stroke-linecap="round" stroke-linejoin="round"/>
<path d="M15.0123 4.97266H6.3396" stroke="#0D1D38" stroke-width="1.5" stroke-linecap="round" stroke-linejoin="round"/>
<path d="M9.84679 8.33008H6.3396" stroke="#0D1D38" stroke-width="1.5" stroke-linecap="round" stroke-linejoin="round"/>
</svg>
