<svg width="24" height="24" viewBox="0 0 24 24" fill="none" xmlns="http://www.w3.org/2000/svg">
<path d="M19.6248 12.8027H15.9212V15.9482H12.7759V19.6517H15.9212V22.797H19.6248V19.6517H22.7701V15.9482H19.6248V12.8027Z" stroke="#04AFF6" stroke-width="1.5" stroke-linecap="round" stroke-linejoin="round"/>
<path d="M9.09063 20.045H2.465C2.07646 20.045 1.70382 19.8907 1.42909 19.616C1.15435 19.3412 1 18.9685 1 18.58V2.465C1 2.07646 1.15435 1.70383 1.42909 1.42909C1.70382 1.15435 2.07646 1 2.465 1H12.846C13.2342 1.00008 13.6066 1.1543 13.8813 1.42876L16.6863 4.23375C16.9607 4.50839 17.1149 4.88074 17.115 5.26901V9.30124" stroke="#0D1D38" stroke-width="1.5" stroke-linecap="round" stroke-linejoin="round"/>
<path d="M4.95996 12.8027C4.95996 11.7983 5.35896 10.835 6.06918 10.1248C6.77939 9.41462 7.74266 9.01562 8.74706 9.01562C9.75146 9.01562 10.7148 9.41462 11.425 10.1248C12.1351 10.835 12.5342 11.7983 12.5342 12.8027H4.95996Z" stroke="#0D1D38" stroke-width="1.5" stroke-linecap="round" stroke-linejoin="round"/>
<path d="M8.74714 9.01431C10.1415 9.01431 11.2718 7.88394 11.2718 6.48958C11.2718 5.09521 10.1415 3.96484 8.74714 3.96484C7.35277 3.96484 6.22241 5.09521 6.22241 6.48958C6.22241 7.88394 7.35277 9.01431 8.74714 9.01431Z" stroke="#0D1D38" stroke-width="1.5" stroke-linecap="round" stroke-linejoin="round"/>
</svg>
