<svg width="24" height="24" viewBox="0 0 24 24" fill="none" xmlns="http://www.w3.org/2000/svg">
<path d="M1 14.1855V22.9755" stroke="#04AFF6" stroke-width="1.5" stroke-linecap="round" stroke-linejoin="round"/>
<path d="M1 21.5104H15.65C15.65 20.7333 15.3413 19.988 14.7918 19.4386C14.2423 18.8891 13.4971 18.5804 12.72 18.5804H9.05848C9.05848 17.8033 8.74978 17.058 8.2003 16.5086C7.65082 15.9591 6.90556 15.6504 6.12848 15.6504H1" stroke="#04AFF6" stroke-width="1.5" stroke-linecap="round" stroke-linejoin="round"/>
<path d="M6.12744 18.5801H9.05744" stroke="#04AFF6" stroke-width="1.5" stroke-linecap="round" stroke-linejoin="round"/>
<path d="M12.3538 5.02875C12.3538 6.09724 12.7782 7.12197 13.5338 7.87751C14.2893 8.63304 15.314 9.0575 16.3825 9.0575C17.451 9.0575 18.4757 8.63304 19.2313 7.87751C19.9868 7.12197 20.4113 6.09724 20.4113 5.02875C20.4113 3.96026 19.9868 2.93553 19.2313 2.17999C18.4757 1.42446 17.451 1 16.3825 1C15.314 1 14.2893 1.42446 13.5338 2.17999C12.7782 2.93553 12.3538 3.96026 12.3538 5.02875Z" stroke="#0D1D38" stroke-width="1.5" stroke-linecap="round" stroke-linejoin="round"/>
<path d="M17.1149 17.1149H22.9749C22.974 15.7988 22.5787 14.5132 21.8401 13.4239C21.1014 12.3347 20.0533 11.4917 18.831 11.0039L16.3834 13.4524L13.9349 11.0039C12.5419 11.5629 11.3801 12.5784 10.6396 13.8841" stroke="#0D1D38" stroke-width="1.5" stroke-linecap="round" stroke-linejoin="round"/>
</svg>
