<svg width="24" height="24" viewBox="0 0 24 24" fill="none" xmlns="http://www.w3.org/2000/svg">
<path d="M20.1073 1H4.323C3.44169 1 2.59647 1.3501 1.97329 1.97329C1.3501 2.59647 1 3.44169 1 4.323V22.5995L5.15375 20.1073L9.30751 22.5995L13.4613 20.1073L17.615 22.5995V3.49225C17.615 2.83126 17.8775 2.19736 18.345 1.72996C18.8124 1.26258 19.4463 1 20.1073 1ZM20.1073 1C20.7683 1 21.4021 1.26258 21.8696 1.72996C22.3369 2.19736 22.5995 2.83126 22.5995 3.49225V9.30751H17.615" stroke="#0D1D38" stroke-width="1.5" stroke-linecap="round" stroke-linejoin="round"/>
<path d="M11.1581 5.27148H7.32696V8.52527H4.07324V12.3564H7.32696V15.6102H11.1581V12.3564H14.412V8.52527H11.1581V5.27148Z" stroke="#04AFF6" stroke-width="1.5" stroke-linecap="round" stroke-linejoin="round"/>
</svg>
