<svg width="24" height="24" viewBox="0 0 24 24" fill="none" xmlns="http://www.w3.org/2000/svg">
<path d="M8.85449 4.17417C8.85449 5.01601 9.18891 5.82337 9.78418 6.41864C10.3795 7.01391 11.1868 7.34833 12.0287 7.34833C12.8705 7.34833 13.6779 7.01391 14.2731 6.41864C14.8684 5.82337 15.2028 5.01601 15.2028 4.17417C15.2028 3.33233 14.8684 2.52496 14.2731 1.92969C13.6779 1.33442 12.8705 1 12.0287 1C11.1868 1 10.3795 1.33442 9.78418 1.92969C9.18891 2.52496 8.85449 3.33233 8.85449 4.17417Z" stroke="#04AFF6" stroke-width="1.5" stroke-linecap="round" stroke-linejoin="round"/>
<path d="M16.9686 12.2316C16.6038 11.2295 15.9395 10.3639 15.0659 9.75225C14.1923 9.14059 13.1517 8.8125 12.0852 8.8125C11.0188 8.8125 9.97817 9.14059 9.10457 9.75225C8.23098 10.3639 7.56671 11.2295 7.2019 12.2316" stroke="#04AFF6" stroke-width="1.5" stroke-linecap="round" stroke-linejoin="round"/>
<path d="M3.93 22.9798L1.96299 20.5205C1.33962 19.7412 1 18.773 1 17.7751V12.7248C1 12.3362 1.15435 11.9636 1.42909 11.6889C1.70383 11.4141 2.07646 11.2598 2.465 11.2598C2.85354 11.2598 3.22617 11.4141 3.50091 11.6889C3.77565 11.9636 3.93 12.3362 3.93 12.7248V16.3843" stroke="#0D1D38" stroke-width="1.5" stroke-linecap="round" stroke-linejoin="round"/>
<path d="M8.32515 22.8478V19.9178C8.326 19.0486 8.06868 18.1988 7.58581 17.4761L6.47046 15.806C6.37521 15.6474 6.24876 15.5097 6.09877 15.4014C5.94878 15.2931 5.77837 15.2163 5.59786 15.1758C5.41734 15.1353 5.23047 15.1318 5.04857 15.1656C4.86666 15.1993 4.69351 15.2697 4.53959 15.3723C4.26255 15.5575 4.06264 15.8373 3.9774 16.1594C3.89215 16.4815 3.92745 16.8237 4.07665 17.1216L5.39515 19.3161" stroke="#0D1D38" stroke-width="1.5" stroke-linecap="round" stroke-linejoin="round"/>
<path d="M20.0452 22.9798L22.0122 20.5205C22.6355 19.7412 22.9752 18.773 22.9752 17.7751V12.7248C22.9752 12.3362 22.8208 11.9636 22.5461 11.6889C22.2713 11.4141 21.8987 11.2598 21.5102 11.2598C21.1216 11.2598 20.749 11.4141 20.4743 11.6889C20.1995 11.9636 20.0452 12.3362 20.0452 12.7248V16.3843" stroke="#0D1D38" stroke-width="1.5" stroke-linecap="round" stroke-linejoin="round"/>
<path d="M15.6501 22.8468V19.9168C15.6493 19.0476 15.9066 18.1978 16.3895 17.4751L17.5048 15.8021C17.6001 15.6435 17.7265 15.5058 17.8765 15.3975C18.0265 15.2892 18.1969 15.2124 18.3774 15.1719C18.558 15.1314 18.7448 15.1279 18.9267 15.1617C19.1086 15.1954 19.2818 15.2658 19.4357 15.3684C19.7131 15.5533 19.9134 15.833 19.999 16.1551C20.0846 16.4772 20.0496 16.8195 19.9006 17.1177L18.5801 19.3152" stroke="#0D1D38" stroke-width="1.5" stroke-linecap="round" stroke-linejoin="round"/>
</svg>
