<svg width="950" height="428" viewBox="0 0 950 428" fill="none" xmlns="http://www.w3.org/2000/svg">
<mask id="mask0_2021_619" style="mask-type:alpha" maskUnits="userSpaceOnUse" x="0" y="0" width="950" height="428">
<rect width="950" height="428" fill="#D9D9D9"/>
</mask>
<g mask="url(#mask0_2021_619)">
<ellipse cx="474" cy="532.5" rx="482" ry="481.5" fill="#D9EFFF"/>
<mask id="mask1_2021_619" style="mask-type:alpha" maskUnits="userSpaceOnUse" x="-164" y="-11" width="1273" height="476">
<path d="M-164 465H1109V-11H-164V465Z" fill="#F7F9FF"/>
</mask>
<g mask="url(#mask1_2021_619)">
<path d="M881.574 275.999C922.65 214.012 937.042 163.889 916.663 135.616C865.042 64.0004 609.87 159.71 346.718 349.388C270.448 404.364 201.879 461.199 144.21 515.942" stroke="url(#paint0_linear_2021_619)" stroke-width="0.5"/>
<path d="M807.859 502.065C770.073 433.584 716.441 362.831 649.461 296.984C453.48 104.32 217.445 26.6249 122.26 123.447C92.2503 153.974 79.8244 198.204 83.02 250.5" stroke="url(#paint1_linear_2021_619)" stroke-width="0.5"/>
<g filter="url(#filter0_b_2021_619)">
<g filter="url(#filter1_d_2021_619)">
<rect x="87" y="111" width="135" height="40" rx="20" fill="#FEFEFF"/>
</g>
<path d="M131.304 136.16C130.302 136.16 129.432 135.941 128.696 135.504C127.971 135.056 127.406 134.427 127 133.616C126.606 132.805 126.408 131.84 126.408 130.72C126.408 129.6 126.616 128.635 127.032 127.824C127.459 127.013 128.051 126.389 128.808 125.952C129.566 125.504 130.435 125.28 131.416 125.28C132.462 125.28 133.31 125.477 133.96 125.872C134.622 126.267 135.155 126.875 135.56 127.696L134.392 128.336C134.158 127.728 133.784 127.269 133.272 126.96C132.771 126.64 132.152 126.48 131.416 126.48C130.702 126.48 130.067 126.651 129.512 126.992C128.968 127.323 128.536 127.808 128.216 128.448C127.907 129.077 127.752 129.835 127.752 130.72C127.752 131.605 127.886 132.368 128.152 133.008C128.43 133.637 128.835 134.123 129.368 134.464C129.912 134.795 130.574 134.96 131.352 134.96C131.79 134.96 132.195 134.907 132.568 134.8C132.952 134.683 133.283 134.512 133.56 134.288C133.848 134.064 134.072 133.781 134.232 133.44C134.392 133.099 134.472 132.699 134.472 132.24V131.872H131.112V130.672H135.64V136H134.632L134.568 134.032L134.84 134.08C134.563 134.741 134.126 135.253 133.528 135.616C132.931 135.979 132.19 136.16 131.304 136.16ZM141.73 136.16C140.973 136.16 140.296 135.995 139.698 135.664C139.112 135.333 138.653 134.859 138.322 134.24C137.992 133.611 137.826 132.864 137.826 132C137.826 131.136 137.992 130.395 138.322 129.776C138.653 129.147 139.106 128.667 139.682 128.336C140.258 128.005 140.914 127.84 141.65 127.84C142.397 127.84 143.032 128 143.554 128.32C144.088 128.64 144.493 129.077 144.77 129.632C145.048 130.176 145.186 130.789 145.186 131.472C145.186 131.653 145.181 131.819 145.17 131.968C145.16 132.117 145.144 132.251 145.122 132.368H138.658V131.232H144.562L143.906 131.36C143.906 130.592 143.693 130 143.266 129.584C142.85 129.168 142.301 128.96 141.618 128.96C141.096 128.96 140.642 129.083 140.258 129.328C139.885 129.563 139.592 129.909 139.378 130.368C139.176 130.816 139.074 131.36 139.074 132C139.074 132.629 139.181 133.173 139.394 133.632C139.608 134.091 139.906 134.443 140.29 134.688C140.685 134.923 141.154 135.04 141.698 135.04C142.285 135.04 142.76 134.928 143.122 134.704C143.496 134.48 143.794 134.176 144.018 133.792L145.026 134.384C144.824 134.747 144.562 135.061 144.242 135.328C143.933 135.595 143.565 135.803 143.138 135.952C142.722 136.091 142.253 136.16 141.73 136.16ZM150.933 127.84C151.69 127.84 152.357 128.005 152.933 128.336C153.519 128.667 153.978 129.147 154.309 129.776C154.639 130.395 154.805 131.136 154.805 132C154.805 132.864 154.639 133.611 154.309 134.24C153.978 134.859 153.519 135.333 152.933 135.664C152.357 135.995 151.69 136.16 150.933 136.16C150.186 136.16 149.519 135.995 148.933 135.664C148.346 135.333 147.887 134.859 147.557 134.24C147.226 133.611 147.061 132.864 147.061 132C147.061 131.136 147.226 130.395 147.557 129.776C147.887 129.147 148.346 128.667 148.933 128.336C149.519 128.005 150.186 127.84 150.933 127.84ZM150.933 128.944C150.389 128.944 149.925 129.067 149.541 129.312C149.157 129.557 148.858 129.909 148.645 130.368C148.442 130.816 148.341 131.36 148.341 132C148.341 132.629 148.442 133.173 148.645 133.632C148.858 134.091 149.157 134.443 149.541 134.688C149.925 134.933 150.389 135.056 150.933 135.056C151.477 135.056 151.941 134.933 152.325 134.688C152.709 134.443 153.002 134.091 153.205 133.632C153.418 133.173 153.525 132.629 153.525 132C153.525 131.36 153.418 130.816 153.205 130.368C153.002 129.909 152.709 129.557 152.325 129.312C151.941 129.067 151.477 128.944 150.933 128.944ZM157.215 136V128H158.255L158.431 129.312C158.655 128.821 158.98 128.453 159.407 128.208C159.844 127.963 160.372 127.84 160.991 127.84C161.129 127.84 161.279 127.851 161.439 127.872C161.609 127.893 161.753 127.936 161.871 128L161.647 129.168C161.529 129.125 161.401 129.093 161.263 129.072C161.124 129.051 160.927 129.04 160.671 129.04C160.34 129.04 160.004 129.136 159.663 129.328C159.332 129.52 159.055 129.813 158.831 130.208C158.607 130.592 158.495 131.083 158.495 131.68V136H157.215ZM170.076 126.528L170.364 127.664C170.353 127.664 170.337 127.664 170.316 127.664C170.294 127.664 170.273 127.664 170.252 127.664C169.729 127.664 169.324 127.771 169.036 127.984C168.758 128.187 168.62 128.517 168.62 128.976L167.836 128.576C167.836 128.16 167.932 127.797 168.124 127.488C168.316 127.179 168.577 126.944 168.908 126.784C169.238 126.613 169.601 126.528 169.996 126.528C170.006 126.528 170.017 126.528 170.028 126.528C170.049 126.528 170.065 126.528 170.076 126.528ZM167.644 134.976C168.401 134.976 168.993 135.152 169.42 135.504C169.846 135.845 170.06 136.304 170.06 136.88C170.06 137.403 169.884 137.856 169.532 138.24C169.19 138.624 168.726 138.917 168.14 139.12C167.564 139.333 166.913 139.44 166.188 139.44C164.929 139.44 163.985 139.227 163.356 138.8C162.737 138.373 162.428 137.861 162.428 137.264C162.428 136.837 162.566 136.453 162.844 136.112C163.132 135.781 163.612 135.595 164.284 135.552L164.172 135.792C163.809 135.696 163.5 135.536 163.244 135.312C162.998 135.077 162.876 134.741 162.876 134.304C162.876 133.867 163.036 133.493 163.356 133.184C163.686 132.864 164.172 132.667 164.812 132.592L165.66 133.024H165.5C164.977 133.077 164.604 133.211 164.38 133.424C164.166 133.627 164.06 133.851 164.06 134.096C164.06 134.395 164.166 134.619 164.38 134.768C164.604 134.907 164.913 134.976 165.308 134.976H167.644ZM166.172 138.368C166.79 138.368 167.297 138.304 167.692 138.176C168.097 138.048 168.396 137.883 168.588 137.68C168.78 137.477 168.876 137.259 168.876 137.024C168.876 136.736 168.758 136.507 168.524 136.336C168.3 136.165 167.889 136.08 167.292 136.08H164.828C164.486 136.08 164.198 136.165 163.964 136.336C163.729 136.517 163.612 136.763 163.612 137.072C163.612 137.467 163.836 137.781 164.284 138.016C164.742 138.251 165.372 138.368 166.172 138.368ZM166.06 127.84C166.7 127.84 167.265 127.957 167.756 128.192C168.257 128.416 168.646 128.731 168.924 129.136C169.201 129.541 169.34 130.011 169.34 130.544C169.34 131.067 169.201 131.536 168.924 131.952C168.646 132.357 168.257 132.677 167.756 132.912C167.265 133.136 166.7 133.248 166.06 133.248C165.004 133.248 164.193 132.997 163.628 132.496C163.062 131.984 162.78 131.333 162.78 130.544C162.78 130.011 162.918 129.541 163.196 129.136C163.484 128.731 163.873 128.416 164.364 128.192C164.854 127.957 165.42 127.84 166.06 127.84ZM166.06 128.88C165.505 128.88 165.041 129.035 164.668 129.344C164.294 129.643 164.108 130.043 164.108 130.544C164.108 131.035 164.294 131.435 164.668 131.744C165.041 132.053 165.505 132.208 166.06 132.208C166.614 132.208 167.078 132.053 167.452 131.744C167.825 131.435 168.012 131.035 168.012 130.544C168.012 130.043 167.825 129.643 167.452 129.344C167.078 129.035 166.614 128.88 166.06 128.88ZM172.495 126.464C172.207 126.464 171.973 126.379 171.791 126.208C171.621 126.027 171.535 125.792 171.535 125.504C171.535 125.216 171.621 124.987 171.791 124.816C171.973 124.635 172.207 124.544 172.495 124.544C172.783 124.544 173.013 124.635 173.183 124.816C173.365 124.987 173.455 125.216 173.455 125.504C173.455 125.792 173.365 126.027 173.183 126.208C173.013 126.379 172.783 126.464 172.495 126.464ZM173.135 128V136H171.855V128H173.135ZM180.777 130.832C180.777 130.235 180.617 129.776 180.297 129.456C179.977 129.125 179.524 128.96 178.937 128.96C178.383 128.96 177.913 129.083 177.529 129.328C177.145 129.563 176.863 129.947 176.681 130.48L175.641 129.84C175.855 129.243 176.249 128.763 176.825 128.4C177.401 128.027 178.116 127.84 178.969 127.84C179.545 127.84 180.068 127.941 180.537 128.144C181.007 128.336 181.375 128.635 181.641 129.04C181.919 129.435 182.057 129.947 182.057 130.576V134.448C182.057 134.832 182.26 135.024 182.665 135.024C182.868 135.024 183.065 134.997 183.257 134.944L183.193 135.952C182.98 136.059 182.703 136.112 182.361 136.112C182.052 136.112 181.775 136.053 181.529 135.936C181.284 135.819 181.092 135.643 180.953 135.408C180.815 135.163 180.745 134.859 180.745 134.496V134.336L181.065 134.384C180.937 134.8 180.719 135.141 180.409 135.408C180.1 135.664 179.753 135.856 179.369 135.984C178.985 136.101 178.607 136.16 178.233 136.16C177.764 136.16 177.327 136.08 176.921 135.92C176.516 135.76 176.191 135.52 175.945 135.2C175.711 134.869 175.593 134.464 175.593 133.984C175.593 133.387 175.791 132.896 176.185 132.512C176.591 132.117 177.151 131.851 177.865 131.712L181.033 131.088V132.144L178.457 132.672C177.935 132.779 177.545 132.928 177.289 133.12C177.033 133.312 176.905 133.579 176.905 133.92C176.905 134.251 177.033 134.523 177.289 134.736C177.556 134.939 177.929 135.04 178.409 135.04C178.719 135.04 179.012 135.003 179.289 134.928C179.577 134.843 179.833 134.72 180.057 134.56C180.281 134.389 180.457 134.181 180.585 133.936C180.713 133.68 180.777 133.381 180.777 133.04V130.832Z" fill="#1A2F55"/>
</g>
<g filter="url(#filter2_b_2021_619)">
<g filter="url(#filter3_d_2021_619)">
<rect x="161" y="250" width="135" height="40" rx="20" fill="#FEFEFF"/>
</g>
<path d="M210.053 264.44L206.053 275H204.597L200.581 264.44H201.957L204.645 271.736L205.317 273.832L205.989 271.752L208.677 264.44H210.053ZM212.636 265.464C212.348 265.464 212.113 265.379 211.932 265.208C211.761 265.027 211.676 264.792 211.676 264.504C211.676 264.216 211.761 263.987 211.932 263.816C212.113 263.635 212.348 263.544 212.636 263.544C212.924 263.544 213.153 263.635 213.324 263.816C213.505 263.987 213.596 264.216 213.596 264.504C213.596 264.792 213.505 265.027 213.324 265.208C213.153 265.379 212.924 265.464 212.636 265.464ZM213.276 267V275H211.996V267H213.276ZM216.246 275V267H217.286L217.462 268.312C217.686 267.821 218.011 267.453 218.438 267.208C218.875 266.963 219.403 266.84 220.022 266.84C220.16 266.84 220.31 266.851 220.47 266.872C220.64 266.893 220.784 266.936 220.902 267L220.678 268.168C220.56 268.125 220.432 268.093 220.294 268.072C220.155 268.051 219.958 268.04 219.702 268.04C219.371 268.04 219.035 268.136 218.694 268.328C218.363 268.52 218.086 268.813 217.862 269.208C217.638 269.592 217.526 270.083 217.526 270.68V275H216.246ZM229.107 265.528L229.395 266.664C229.384 266.664 229.368 266.664 229.347 266.664C229.325 266.664 229.304 266.664 229.283 266.664C228.76 266.664 228.355 266.771 228.067 266.984C227.789 267.187 227.651 267.517 227.651 267.976L226.867 267.576C226.867 267.16 226.963 266.797 227.155 266.488C227.347 266.179 227.608 265.944 227.939 265.784C228.269 265.613 228.632 265.528 229.027 265.528C229.037 265.528 229.048 265.528 229.059 265.528C229.08 265.528 229.096 265.528 229.107 265.528ZM226.675 273.976C227.432 273.976 228.024 274.152 228.451 274.504C228.877 274.845 229.091 275.304 229.091 275.88C229.091 276.403 228.915 276.856 228.563 277.24C228.221 277.624 227.757 277.917 227.171 278.12C226.595 278.333 225.944 278.44 225.219 278.44C223.96 278.44 223.016 278.227 222.387 277.8C221.768 277.373 221.459 276.861 221.459 276.264C221.459 275.837 221.597 275.453 221.875 275.112C222.163 274.781 222.643 274.595 223.315 274.552L223.203 274.792C222.84 274.696 222.531 274.536 222.275 274.312C222.029 274.077 221.907 273.741 221.907 273.304C221.907 272.867 222.067 272.493 222.387 272.184C222.717 271.864 223.203 271.667 223.843 271.592L224.691 272.024H224.531C224.008 272.077 223.635 272.211 223.411 272.424C223.197 272.627 223.091 272.851 223.091 273.096C223.091 273.395 223.197 273.619 223.411 273.768C223.635 273.907 223.944 273.976 224.339 273.976H226.675ZM225.203 277.368C225.821 277.368 226.328 277.304 226.723 277.176C227.128 277.048 227.427 276.883 227.619 276.68C227.811 276.477 227.907 276.259 227.907 276.024C227.907 275.736 227.789 275.507 227.555 275.336C227.331 275.165 226.92 275.08 226.323 275.08H223.859C223.517 275.08 223.229 275.165 222.995 275.336C222.76 275.517 222.643 275.763 222.643 276.072C222.643 276.467 222.867 276.781 223.315 277.016C223.773 277.251 224.403 277.368 225.203 277.368ZM225.091 266.84C225.731 266.84 226.296 266.957 226.787 267.192C227.288 267.416 227.677 267.731 227.955 268.136C228.232 268.541 228.371 269.011 228.371 269.544C228.371 270.067 228.232 270.536 227.955 270.952C227.677 271.357 227.288 271.677 226.787 271.912C226.296 272.136 225.731 272.248 225.091 272.248C224.035 272.248 223.224 271.997 222.659 271.496C222.093 270.984 221.811 270.333 221.811 269.544C221.811 269.011 221.949 268.541 222.227 268.136C222.515 267.731 222.904 267.416 223.395 267.192C223.885 266.957 224.451 266.84 225.091 266.84ZM225.091 267.88C224.536 267.88 224.072 268.035 223.699 268.344C223.325 268.643 223.139 269.043 223.139 269.544C223.139 270.035 223.325 270.435 223.699 270.744C224.072 271.053 224.536 271.208 225.091 271.208C225.645 271.208 226.109 271.053 226.483 270.744C226.856 270.435 227.043 270.035 227.043 269.544C227.043 269.043 226.856 268.643 226.483 268.344C226.109 268.035 225.645 267.88 225.091 267.88ZM231.526 265.464C231.238 265.464 231.004 265.379 230.822 265.208C230.652 265.027 230.566 264.792 230.566 264.504C230.566 264.216 230.652 263.987 230.822 263.816C231.004 263.635 231.238 263.544 231.526 263.544C231.814 263.544 232.044 263.635 232.214 263.816C232.396 263.987 232.486 264.216 232.486 264.504C232.486 264.792 232.396 265.027 232.214 265.208C232.044 265.379 231.814 265.464 231.526 265.464ZM232.166 267V275H230.886V267H232.166ZM235.136 275V267H236.256L236.368 268.792L236.16 268.616C236.331 268.189 236.56 267.848 236.848 267.592C237.136 267.325 237.467 267.133 237.84 267.016C238.224 266.899 238.619 266.84 239.024 266.84C239.6 266.84 240.123 266.952 240.592 267.176C241.062 267.389 241.435 267.72 241.712 268.168C242 268.616 242.144 269.187 242.144 269.88V275H240.864V270.328C240.864 269.443 240.672 268.829 240.288 268.488C239.915 268.136 239.451 267.96 238.896 267.96C238.512 267.96 238.128 268.051 237.744 268.232C237.36 268.413 237.04 268.707 236.784 269.112C236.539 269.517 236.416 270.061 236.416 270.744V275H235.136ZM245.683 265.464C245.395 265.464 245.16 265.379 244.979 265.208C244.808 265.027 244.723 264.792 244.723 264.504C244.723 264.216 244.808 263.987 244.979 263.816C245.16 263.635 245.395 263.544 245.683 263.544C245.971 263.544 246.2 263.635 246.371 263.816C246.552 263.987 246.643 264.216 246.643 264.504C246.643 264.792 246.552 265.027 246.371 265.208C246.2 265.379 245.971 265.464 245.683 265.464ZM246.323 267V275H245.043V267H246.323ZM253.965 269.832C253.965 269.235 253.805 268.776 253.485 268.456C253.165 268.125 252.711 267.96 252.125 267.96C251.57 267.96 251.101 268.083 250.717 268.328C250.333 268.563 250.05 268.947 249.869 269.48L248.829 268.84C249.042 268.243 249.437 267.763 250.013 267.4C250.589 267.027 251.303 266.84 252.157 266.84C252.733 266.84 253.255 266.941 253.725 267.144C254.194 267.336 254.562 267.635 254.829 268.04C255.106 268.435 255.245 268.947 255.245 269.576V273.448C255.245 273.832 255.447 274.024 255.853 274.024C256.055 274.024 256.253 273.997 256.445 273.944L256.381 274.952C256.167 275.059 255.89 275.112 255.549 275.112C255.239 275.112 254.962 275.053 254.717 274.936C254.471 274.819 254.279 274.643 254.141 274.408C254.002 274.163 253.933 273.859 253.933 273.496V273.336L254.253 273.384C254.125 273.8 253.906 274.141 253.597 274.408C253.287 274.664 252.941 274.856 252.557 274.984C252.173 275.101 251.794 275.16 251.421 275.16C250.951 275.16 250.514 275.08 250.109 274.92C249.703 274.76 249.378 274.52 249.133 274.2C248.898 273.869 248.781 273.464 248.781 272.984C248.781 272.387 248.978 271.896 249.373 271.512C249.778 271.117 250.338 270.851 251.053 270.712L254.221 270.088V271.144L251.645 271.672C251.122 271.779 250.733 271.928 250.477 272.12C250.221 272.312 250.093 272.579 250.093 272.92C250.093 273.251 250.221 273.523 250.477 273.736C250.743 273.939 251.117 274.04 251.597 274.04C251.906 274.04 252.199 274.003 252.477 273.928C252.765 273.843 253.021 273.72 253.245 273.56C253.469 273.389 253.645 273.181 253.773 272.936C253.901 272.68 253.965 272.381 253.965 272.04V269.832Z" fill="#1A2F55"/>
</g>
<g filter="url(#filter4_b_2021_619)">
<g filter="url(#filter5_d_2021_619)">
<rect x="409" y="35" width="135" height="40" rx="20" fill="#FEFEFF"/>
</g>
<path d="M450.18 49.44V60H448.596L444.18 52.928L443.06 50.944H443.044L443.108 52.544V60H441.892V49.44H443.476L447.876 56.48L449.012 58.512H449.028L448.964 56.896V49.44H450.18ZM456.621 60.16C455.864 60.16 455.186 59.9946 454.589 59.664C454.002 59.3333 453.544 58.8586 453.213 58.24C452.882 57.6106 452.717 56.864 452.717 56C452.717 55.136 452.882 54.3946 453.213 53.776C453.544 53.1466 453.997 52.6666 454.573 52.336C455.149 52.0053 455.805 51.84 456.541 51.84C457.288 51.84 457.922 52 458.445 52.32C458.978 52.64 459.384 53.0773 459.661 53.632C459.938 54.176 460.077 54.7893 460.077 55.472C460.077 55.6533 460.072 55.8186 460.061 55.968C460.05 56.1173 460.034 56.2506 460.013 56.368H453.549V55.232H459.453L458.797 55.36C458.797 54.592 458.584 54 458.157 53.584C457.741 53.168 457.192 52.96 456.509 52.96C455.986 52.96 455.533 53.0826 455.149 53.328C454.776 53.5626 454.482 53.9093 454.269 54.368C454.066 54.816 453.965 55.36 453.965 56C453.965 56.6293 454.072 57.1733 454.285 57.632C454.498 58.0906 454.797 58.4426 455.181 58.688C455.576 58.9226 456.045 59.04 456.589 59.04C457.176 59.04 457.65 58.928 458.013 58.704C458.386 58.48 458.685 58.176 458.909 57.792L459.917 58.384C459.714 58.7466 459.453 59.0613 459.133 59.328C458.824 59.5946 458.456 59.8026 458.029 59.952C457.613 60.0906 457.144 60.16 456.621 60.16ZM472.356 52H473.78L470.996 60H469.716L467.46 53.632L465.332 60H464.052L461.268 52H462.692L464.708 58.512L466.884 52H468.164L470.34 58.512L472.356 52ZM487.625 49.44L483.849 55.872V60H482.569V55.872L478.793 49.44H480.313L482.361 53.056L483.209 54.56L484.057 53.056L486.105 49.44H487.625ZM491.433 51.84C492.19 51.84 492.857 52.0053 493.433 52.336C494.019 52.6666 494.478 53.1466 494.809 53.776C495.139 54.3946 495.305 55.136 495.305 56C495.305 56.864 495.139 57.6106 494.809 58.24C494.478 58.8586 494.019 59.3333 493.433 59.664C492.857 59.9946 492.19 60.16 491.433 60.16C490.686 60.16 490.019 59.9946 489.433 59.664C488.846 59.3333 488.387 58.8586 488.057 58.24C487.726 57.6106 487.561 56.864 487.561 56C487.561 55.136 487.726 54.3946 488.057 53.776C488.387 53.1466 488.846 52.6666 489.433 52.336C490.019 52.0053 490.686 51.84 491.433 51.84ZM491.433 52.944C490.889 52.944 490.425 53.0666 490.041 53.312C489.657 53.5573 489.358 53.9093 489.145 54.368C488.942 54.816 488.841 55.36 488.841 56C488.841 56.6293 488.942 57.1733 489.145 57.632C489.358 58.0906 489.657 58.4426 490.041 58.688C490.425 58.9333 490.889 59.056 491.433 59.056C491.977 59.056 492.441 58.9333 492.825 58.688C493.209 58.4426 493.502 58.0906 493.705 57.632C493.918 57.1733 494.025 56.6293 494.025 56C494.025 55.36 493.918 54.816 493.705 54.368C493.502 53.9093 493.209 53.5573 492.825 53.312C492.441 53.0666 491.977 52.944 491.433 52.944ZM497.715 60V52H498.755L498.931 53.312C499.155 52.8213 499.48 52.4533 499.907 52.208C500.344 51.9626 500.872 51.84 501.491 51.84C501.629 51.84 501.779 51.8506 501.939 51.872C502.109 51.8933 502.253 51.936 502.371 52L502.147 53.168C502.029 53.1253 501.901 53.0933 501.763 53.072C501.624 53.0506 501.427 53.04 501.171 53.04C500.84 53.04 500.504 53.136 500.163 53.328C499.832 53.52 499.555 53.8133 499.331 54.208C499.107 54.592 498.995 55.0826 498.995 55.68V60H497.715ZM511.27 52L507.814 55.456L507.51 55.76L504.886 58.384V56.784L509.654 52H511.27ZM505.526 48.32V60H504.246V48.32H505.526ZM507.926 54.8L511.462 60H509.91L506.854 55.52L507.926 54.8Z" fill="#1A2F55"/>
</g>
<g filter="url(#filter6_b_2021_619)">
<g filter="url(#filter7_d_2021_619)">
<rect x="481" y="188" width="135" height="40" rx="20" fill="#FEFEFF"/>
</g>
<path d="M524.288 202.44V213H523.072V206.36L523.216 203.576H523.2L519.728 213H518.64L515.168 203.576H515.152L515.296 206.36V213H514.08V202.44H516.048L518.368 208.856L519.168 211.496H519.2L520.016 208.872L522.32 202.44H524.288ZM532.074 207.832C532.074 207.235 531.914 206.776 531.594 206.456C531.274 206.125 530.821 205.96 530.234 205.96C529.679 205.96 529.21 206.083 528.826 206.328C528.442 206.563 528.159 206.947 527.978 207.48L526.938 206.84C527.151 206.243 527.546 205.763 528.122 205.4C528.698 205.027 529.413 204.84 530.266 204.84C530.842 204.84 531.365 204.941 531.834 205.144C532.303 205.336 532.671 205.635 532.938 206.04C533.215 206.435 533.354 206.947 533.354 207.576V211.448C533.354 211.832 533.557 212.024 533.962 212.024C534.165 212.024 534.362 211.997 534.554 211.944L534.49 212.952C534.277 213.059 533.999 213.112 533.658 213.112C533.349 213.112 533.071 213.053 532.826 212.936C532.581 212.819 532.389 212.643 532.25 212.408C532.111 212.163 532.042 211.859 532.042 211.496V211.336L532.362 211.384C532.234 211.8 532.015 212.141 531.706 212.408C531.397 212.664 531.05 212.856 530.666 212.984C530.282 213.101 529.903 213.16 529.53 213.16C529.061 213.16 528.623 213.08 528.218 212.92C527.813 212.76 527.487 212.52 527.242 212.2C527.007 211.869 526.89 211.464 526.89 210.984C526.89 210.387 527.087 209.896 527.482 209.512C527.887 209.117 528.447 208.851 529.162 208.712L532.33 208.088V209.144L529.754 209.672C529.231 209.779 528.842 209.928 528.586 210.12C528.33 210.312 528.202 210.579 528.202 210.92C528.202 211.251 528.33 211.523 528.586 211.736C528.853 211.939 529.226 212.04 529.706 212.04C530.015 212.04 530.309 212.003 530.586 211.928C530.874 211.843 531.13 211.72 531.354 211.56C531.578 211.389 531.754 211.181 531.882 210.936C532.01 210.68 532.074 210.381 532.074 210.04V207.832ZM536.465 213V205H537.505L537.681 206.312C537.905 205.821 538.23 205.453 538.657 205.208C539.094 204.963 539.622 204.84 540.241 204.84C540.379 204.84 540.529 204.851 540.689 204.872C540.859 204.893 541.003 204.936 541.121 205L540.897 206.168C540.779 206.125 540.651 206.093 540.513 206.072C540.374 206.051 540.177 206.04 539.921 206.04C539.59 206.04 539.254 206.136 538.913 206.328C538.582 206.52 538.305 206.813 538.081 207.208C537.857 207.592 537.745 208.083 537.745 208.68V213H536.465ZM549.572 205L545.812 214.344C545.609 214.867 545.385 215.277 545.14 215.576C544.905 215.885 544.638 216.104 544.34 216.232C544.052 216.371 543.716 216.44 543.332 216.44C542.969 216.44 542.633 216.387 542.324 216.28C542.025 216.184 541.758 216.051 541.524 215.88L541.876 214.76C542.089 214.952 542.313 215.091 542.548 215.176C542.793 215.272 543.033 215.32 543.268 215.32C543.545 215.32 543.806 215.235 544.052 215.064C544.297 214.893 544.521 214.547 544.724 214.024L545.14 212.984L544.34 211.08L541.796 205H543.252L545.252 210.216L545.748 211.64L546.324 210.056L548.196 205H549.572ZM552.462 201.32V210.968C552.462 211.373 552.536 211.656 552.686 211.816C552.835 211.965 553.075 212.04 553.406 212.04C553.619 212.04 553.795 212.024 553.934 211.992C554.072 211.96 554.259 211.901 554.494 211.816L554.286 212.936C554.115 213.011 553.928 213.064 553.726 213.096C553.523 213.139 553.315 213.16 553.102 213.16C552.451 213.16 551.966 212.984 551.646 212.632C551.336 212.28 551.182 211.741 551.182 211.016V201.32H552.462ZM560.808 207.832C560.808 207.235 560.648 206.776 560.328 206.456C560.008 206.125 559.555 205.96 558.968 205.96C558.414 205.96 557.944 206.083 557.56 206.328C557.176 206.563 556.894 206.947 556.712 207.48L555.672 206.84C555.886 206.243 556.28 205.763 556.856 205.4C557.432 205.027 558.147 204.84 559 204.84C559.576 204.84 560.099 204.941 560.568 205.144C561.038 205.336 561.406 205.635 561.672 206.04C561.95 206.435 562.088 206.947 562.088 207.576V211.448C562.088 211.832 562.291 212.024 562.696 212.024C562.899 212.024 563.096 211.997 563.288 211.944L563.224 212.952C563.011 213.059 562.734 213.112 562.392 213.112C562.083 213.112 561.806 213.053 561.56 212.936C561.315 212.819 561.123 212.643 560.984 212.408C560.846 212.163 560.776 211.859 560.776 211.496V211.336L561.096 211.384C560.968 211.8 560.75 212.141 560.44 212.408C560.131 212.664 559.784 212.856 559.4 212.984C559.016 213.101 558.638 213.16 558.264 213.16C557.795 213.16 557.358 213.08 556.952 212.92C556.547 212.76 556.222 212.52 555.976 212.2C555.742 211.869 555.624 211.464 555.624 210.984C555.624 210.387 555.822 209.896 556.216 209.512C556.622 209.117 557.182 208.851 557.896 208.712L561.064 208.088V209.144L558.488 209.672C557.966 209.779 557.576 209.928 557.32 210.12C557.064 210.312 556.936 210.579 556.936 210.92C556.936 211.251 557.064 211.523 557.32 211.736C557.587 211.939 557.96 212.04 558.44 212.04C558.75 212.04 559.043 212.003 559.32 211.928C559.608 211.843 559.864 211.72 560.088 211.56C560.312 211.389 560.488 211.181 560.616 210.936C560.744 210.68 560.808 210.381 560.808 210.04V207.832ZM565.199 213V205H566.319L566.431 206.792L566.223 206.616C566.394 206.189 566.623 205.848 566.911 205.592C567.199 205.325 567.53 205.133 567.903 205.016C568.287 204.899 568.682 204.84 569.087 204.84C569.663 204.84 570.186 204.952 570.655 205.176C571.124 205.389 571.498 205.72 571.775 206.168C572.063 206.616 572.207 207.187 572.207 207.88V213H570.927V208.328C570.927 207.443 570.735 206.829 570.351 206.488C569.978 206.136 569.514 205.96 568.959 205.96C568.575 205.96 568.191 206.051 567.807 206.232C567.423 206.413 567.103 206.707 566.847 207.112C566.602 207.517 566.479 208.061 566.479 208.744V213H565.199ZM578.225 213.16C577.564 213.16 576.956 212.995 576.401 212.664C575.847 212.333 575.404 211.859 575.073 211.24C574.743 210.611 574.577 209.864 574.577 209C574.577 208.115 574.753 207.363 575.105 206.744C575.457 206.125 575.921 205.656 576.497 205.336C577.073 205.005 577.692 204.84 578.353 204.84C579.015 204.84 579.585 205.011 580.065 205.352C580.556 205.693 580.881 206.147 581.041 206.712L580.881 206.824V201.32H582.161V213H581.041L580.929 211.064L581.105 210.968C581.031 211.437 580.849 211.837 580.561 212.168C580.284 212.488 579.937 212.733 579.521 212.904C579.116 213.075 578.684 213.16 578.225 213.16ZM578.353 212.04C578.865 212.04 579.308 211.912 579.681 211.656C580.065 211.4 580.359 211.037 580.561 210.568C580.775 210.088 580.881 209.528 580.881 208.888C580.881 208.28 580.775 207.757 580.561 207.32C580.359 206.883 580.071 206.547 579.697 206.312C579.335 206.077 578.908 205.96 578.417 205.96C577.607 205.96 576.977 206.237 576.529 206.792C576.081 207.347 575.857 208.083 575.857 209C575.857 209.917 576.076 210.653 576.513 211.208C576.951 211.763 577.564 212.04 578.353 212.04Z" fill="#1A2F55"/>
</g>
<g filter="url(#filter8_b_2021_619)">
<g filter="url(#filter9_d_2021_619)">
<rect x="676" y="111" width="135" height="40" rx="20" fill="#FEFEFF"/>
</g>
<path d="M709.196 125.44V136H707.612L703.196 128.928L702.076 126.944H702.06L702.124 128.544V136H700.908V125.44H702.492L706.892 132.48L708.028 134.512H708.044L707.98 132.896V125.44H709.196ZM715.637 136.16C714.879 136.16 714.202 135.995 713.605 135.664C713.018 135.333 712.559 134.859 712.229 134.24C711.898 133.611 711.733 132.864 711.733 132C711.733 131.136 711.898 130.395 712.229 129.776C712.559 129.147 713.013 128.667 713.589 128.336C714.165 128.005 714.821 127.84 715.557 127.84C716.303 127.84 716.938 128 717.461 128.32C717.994 128.64 718.399 129.077 718.677 129.632C718.954 130.176 719.093 130.789 719.093 131.472C719.093 131.653 719.087 131.819 719.077 131.968C719.066 132.117 719.05 132.251 719.029 132.368H712.565V131.232H718.469L717.813 131.36C717.813 130.592 717.599 130 717.173 129.584C716.757 129.168 716.207 128.96 715.525 128.96C715.002 128.96 714.549 129.083 714.165 129.328C713.791 129.563 713.498 129.909 713.285 130.368C713.082 130.816 712.981 131.36 712.981 132C712.981 132.629 713.087 133.173 713.301 133.632C713.514 134.091 713.813 134.443 714.197 134.688C714.591 134.923 715.061 135.04 715.605 135.04C716.191 135.04 716.666 134.928 717.029 134.704C717.402 134.48 717.701 134.176 717.925 133.792L718.933 134.384C718.73 134.747 718.469 135.061 718.149 135.328C717.839 135.595 717.471 135.803 717.045 135.952C716.629 136.091 716.159 136.16 715.637 136.16ZM731.372 128H732.796L730.012 136H728.732L726.476 129.632L724.348 136H723.068L720.284 128H721.708L723.724 134.512L725.9 128H727.18L729.356 134.512L731.372 128ZM745.37 125.44V132.384C745.37 133.568 745.05 134.496 744.41 135.168C743.78 135.829 742.906 136.16 741.786 136.16C740.996 136.16 740.346 136.011 739.834 135.712C739.322 135.413 738.964 134.992 738.762 134.448C738.57 133.893 738.543 133.248 738.682 132.512L739.866 132.272C739.748 133.179 739.828 133.856 740.106 134.304C740.394 134.741 740.938 134.96 741.738 134.96C742.644 134.96 743.263 134.715 743.594 134.224C743.924 133.723 744.09 133.003 744.09 132.064V125.44H745.37ZM751.699 136.16C750.942 136.16 750.265 135.995 749.667 135.664C749.081 135.333 748.622 134.859 748.291 134.24C747.961 133.611 747.795 132.864 747.795 132C747.795 131.136 747.961 130.395 748.291 129.776C748.622 129.147 749.075 128.667 749.651 128.336C750.227 128.005 750.883 127.84 751.619 127.84C752.366 127.84 753.001 128 753.523 128.32C754.057 128.64 754.462 129.077 754.739 129.632C755.017 130.176 755.155 130.789 755.155 131.472C755.155 131.653 755.15 131.819 755.139 131.968C755.129 132.117 755.113 132.251 755.091 132.368H748.627V131.232H754.531L753.875 131.36C753.875 130.592 753.662 130 753.235 129.584C752.819 129.168 752.27 128.96 751.587 128.96C751.065 128.96 750.611 129.083 750.227 129.328C749.854 129.563 749.561 129.909 749.347 130.368C749.145 130.816 749.043 131.36 749.043 132C749.043 132.629 749.15 133.173 749.363 133.632C749.577 134.091 749.875 134.443 750.259 134.688C750.654 134.923 751.123 135.04 751.667 135.04C752.254 135.04 752.729 134.928 753.091 134.704C753.465 134.48 753.763 134.176 753.987 133.792L754.995 134.384C754.793 134.747 754.531 135.061 754.211 135.328C753.902 135.595 753.534 135.803 753.107 135.952C752.691 136.091 752.222 136.16 751.699 136.16ZM757.59 136V128H758.63L758.806 129.312C759.03 128.821 759.355 128.453 759.782 128.208C760.219 127.963 760.747 127.84 761.366 127.84C761.504 127.84 761.654 127.851 761.814 127.872C761.984 127.893 762.128 127.936 762.246 128L762.022 129.168C761.904 129.125 761.776 129.093 761.638 129.072C761.499 129.051 761.302 129.04 761.046 129.04C760.715 129.04 760.379 129.136 760.038 129.328C759.707 129.52 759.43 129.813 759.206 130.208C758.982 130.592 758.87 131.083 758.87 131.68V136H757.59ZM766.657 136.16C765.878 136.16 765.158 135.995 764.497 135.664C763.846 135.333 763.345 134.864 762.993 134.256L764.081 133.472C764.316 133.963 764.657 134.347 765.105 134.624C765.564 134.901 766.113 135.04 766.753 135.04C767.318 135.04 767.761 134.933 768.081 134.72C768.401 134.496 768.561 134.208 768.561 133.856C768.561 133.632 768.486 133.429 768.337 133.248C768.198 133.056 767.926 132.917 767.521 132.832L765.601 132.432C764.822 132.272 764.262 132.005 763.921 131.632C763.59 131.259 763.425 130.795 763.425 130.24C763.425 129.803 763.548 129.403 763.793 129.04C764.049 128.677 764.406 128.389 764.865 128.176C765.334 127.952 765.884 127.84 766.513 127.84C767.302 127.84 767.969 127.995 768.513 128.304C769.057 128.613 769.462 129.051 769.729 129.616L768.657 130.32C768.476 129.851 768.182 129.509 767.777 129.296C767.372 129.072 766.95 128.96 766.513 128.96C766.129 128.96 765.798 129.013 765.521 129.12C765.254 129.227 765.046 129.376 764.897 129.568C764.758 129.749 764.689 129.957 764.689 130.192C764.689 130.427 764.769 130.645 764.929 130.848C765.089 131.04 765.388 131.179 765.825 131.264L767.825 131.68C768.572 131.829 769.094 132.075 769.393 132.416C769.692 132.757 769.841 133.173 769.841 133.664C769.841 134.165 769.708 134.608 769.441 134.992C769.174 135.365 768.801 135.653 768.321 135.856C767.841 136.059 767.286 136.16 766.657 136.16ZM775.559 136.16C774.801 136.16 774.124 135.995 773.527 135.664C772.94 135.333 772.481 134.859 772.151 134.24C771.82 133.611 771.655 132.864 771.655 132C771.655 131.136 771.82 130.395 772.151 129.776C772.481 129.147 772.935 128.667 773.511 128.336C774.087 128.005 774.743 127.84 775.479 127.84C776.225 127.84 776.86 128 777.383 128.32C777.916 128.64 778.321 129.077 778.599 129.632C778.876 130.176 779.015 130.789 779.015 131.472C779.015 131.653 779.009 131.819 778.999 131.968C778.988 132.117 778.972 132.251 778.951 132.368H772.487V131.232H778.391L777.735 131.36C777.735 130.592 777.521 130 777.095 129.584C776.679 129.168 776.129 128.96 775.447 128.96C774.924 128.96 774.471 129.083 774.087 129.328C773.713 129.563 773.42 129.909 773.207 130.368C773.004 130.816 772.903 131.36 772.903 132C772.903 132.629 773.009 133.173 773.223 133.632C773.436 134.091 773.735 134.443 774.119 134.688C774.513 134.923 774.983 135.04 775.527 135.04C776.113 135.04 776.588 134.928 776.951 134.704C777.324 134.48 777.623 134.176 777.847 133.792L778.855 134.384C778.652 134.747 778.391 135.061 778.071 135.328C777.761 135.595 777.393 135.803 776.967 135.952C776.551 136.091 776.081 136.16 775.559 136.16ZM787.634 128L783.874 137.344C783.672 137.867 783.448 138.277 783.202 138.576C782.968 138.885 782.701 139.104 782.402 139.232C782.114 139.371 781.778 139.44 781.394 139.44C781.032 139.44 780.696 139.387 780.386 139.28C780.088 139.184 779.821 139.051 779.586 138.88L779.938 137.76C780.152 137.952 780.376 138.091 780.61 138.176C780.856 138.272 781.096 138.32 781.33 138.32C781.608 138.32 781.869 138.235 782.114 138.064C782.36 137.893 782.584 137.547 782.786 137.024L783.202 135.984L782.402 134.08L779.858 128H781.314L783.314 133.216L783.81 134.64L784.386 133.056L786.258 128H787.634Z" fill="#1A2F55"/>
</g>
<g filter="url(#filter10_b_2021_619)">
<g filter="url(#filter11_d_2021_619)">
<rect x="784" y="250" width="135" height="40" rx="20" fill="#FEFEFF"/>
</g>
<path d="M806.534 264.44C807.249 264.44 807.867 264.573 808.39 264.84C808.923 265.096 809.339 265.464 809.638 265.944C809.937 266.424 810.086 266.995 810.086 267.656C810.086 268.317 809.937 268.888 809.638 269.368C809.339 269.848 808.923 270.221 808.39 270.488C807.867 270.744 807.249 270.872 806.534 270.872H804.086V275H802.806V264.44H806.534ZM806.342 269.672C807.174 269.672 807.782 269.501 808.166 269.16C808.55 268.808 808.742 268.307 808.742 267.656C808.742 266.995 808.55 266.493 808.166 266.152C807.782 265.811 807.174 265.64 806.342 265.64H804.086V269.672H806.342ZM815.535 275.16C814.778 275.16 814.1 274.995 813.503 274.664C812.916 274.333 812.458 273.859 812.127 273.24C811.796 272.611 811.631 271.864 811.631 271C811.631 270.136 811.796 269.395 812.127 268.776C812.458 268.147 812.911 267.667 813.487 267.336C814.063 267.005 814.719 266.84 815.455 266.84C816.202 266.84 816.836 267 817.359 267.32C817.892 267.64 818.298 268.077 818.575 268.632C818.852 269.176 818.991 269.789 818.991 270.472C818.991 270.653 818.986 270.819 818.975 270.968C818.964 271.117 818.948 271.251 818.927 271.368H812.463V270.232H818.367L817.711 270.36C817.711 269.592 817.498 269 817.071 268.584C816.655 268.168 816.106 267.96 815.423 267.96C814.9 267.96 814.447 268.083 814.063 268.328C813.69 268.563 813.396 268.909 813.183 269.368C812.98 269.816 812.879 270.36 812.879 271C812.879 271.629 812.986 272.173 813.199 272.632C813.412 273.091 813.711 273.443 814.095 273.688C814.49 273.923 814.959 274.04 815.503 274.04C816.09 274.04 816.564 273.928 816.927 273.704C817.3 273.48 817.599 273.176 817.823 272.792L818.831 273.384C818.628 273.747 818.367 274.061 818.047 274.328C817.738 274.595 817.37 274.803 816.943 274.952C816.527 275.091 816.058 275.16 815.535 275.16ZM821.426 275V267H822.546L822.658 268.792L822.45 268.616C822.62 268.189 822.85 267.848 823.138 267.592C823.426 267.325 823.756 267.133 824.13 267.016C824.514 266.899 824.908 266.84 825.314 266.84C825.89 266.84 826.412 266.952 826.882 267.176C827.351 267.389 827.724 267.72 828.002 268.168C828.29 268.616 828.434 269.187 828.434 269.88V275H827.154V270.328C827.154 269.443 826.962 268.829 826.578 268.488C826.204 268.136 825.74 267.96 825.186 267.96C824.802 267.96 824.418 268.051 824.034 268.232C823.65 268.413 823.33 268.707 823.074 269.112C822.828 269.517 822.706 270.061 822.706 270.744V275H821.426ZM831.332 275V267H832.452L832.564 268.792L832.356 268.616C832.526 268.189 832.756 267.848 833.044 267.592C833.332 267.325 833.662 267.133 834.036 267.016C834.42 266.899 834.814 266.84 835.22 266.84C835.796 266.84 836.318 266.952 836.788 267.176C837.257 267.389 837.63 267.72 837.908 268.168C838.196 268.616 838.34 269.187 838.34 269.88V275H837.06V270.328C837.06 269.443 836.868 268.829 836.484 268.488C836.11 268.136 835.646 267.96 835.092 267.96C834.708 267.96 834.324 268.051 833.94 268.232C833.556 268.413 833.236 268.707 832.98 269.112C832.734 269.517 832.612 270.061 832.612 270.744V275H831.332ZM844.118 275.16C843.339 275.16 842.619 274.995 841.958 274.664C841.307 274.333 840.806 273.864 840.454 273.256L841.542 272.472C841.777 272.963 842.118 273.347 842.566 273.624C843.025 273.901 843.574 274.04 844.214 274.04C844.779 274.04 845.222 273.933 845.542 273.72C845.862 273.496 846.022 273.208 846.022 272.856C846.022 272.632 845.947 272.429 845.798 272.248C845.659 272.056 845.387 271.917 844.982 271.832L843.062 271.432C842.283 271.272 841.723 271.005 841.382 270.632C841.051 270.259 840.886 269.795 840.886 269.24C840.886 268.803 841.009 268.403 841.254 268.04C841.51 267.677 841.867 267.389 842.326 267.176C842.795 266.952 843.345 266.84 843.974 266.84C844.763 266.84 845.43 266.995 845.974 267.304C846.518 267.613 846.923 268.051 847.19 268.616L846.118 269.32C845.937 268.851 845.643 268.509 845.238 268.296C844.833 268.072 844.411 267.96 843.974 267.96C843.59 267.96 843.259 268.013 842.982 268.12C842.715 268.227 842.507 268.376 842.358 268.568C842.219 268.749 842.15 268.957 842.15 269.192C842.15 269.427 842.23 269.645 842.39 269.848C842.55 270.04 842.849 270.179 843.286 270.264L845.286 270.68C846.033 270.829 846.555 271.075 846.854 271.416C847.153 271.757 847.302 272.173 847.302 272.664C847.302 273.165 847.169 273.608 846.902 273.992C846.635 274.365 846.262 274.653 845.782 274.856C845.302 275.059 844.747 275.16 844.118 275.16ZM855.767 267L852.007 276.344C851.804 276.867 851.58 277.277 851.335 277.576C851.1 277.885 850.834 278.104 850.535 278.232C850.247 278.371 849.911 278.44 849.527 278.44C849.164 278.44 848.828 278.387 848.519 278.28C848.22 278.184 847.954 278.051 847.719 277.88L848.071 276.76C848.284 276.952 848.508 277.091 848.743 277.176C848.988 277.272 849.228 277.32 849.463 277.32C849.74 277.32 850.002 277.235 850.247 277.064C850.492 276.893 850.716 276.547 850.919 276.024L851.335 274.984L850.535 273.08L847.991 267H849.447L851.447 272.216L851.943 273.64L852.519 272.056L854.391 267H855.767ZM858.657 263.32V272.968C858.657 273.373 858.732 273.656 858.881 273.816C859.03 273.965 859.27 274.04 859.601 274.04C859.814 274.04 859.99 274.024 860.129 273.992C860.268 273.96 860.454 273.901 860.689 273.816L860.481 274.936C860.31 275.011 860.124 275.064 859.921 275.096C859.718 275.139 859.51 275.16 859.297 275.16C858.646 275.16 858.161 274.984 857.841 274.632C857.532 274.28 857.377 273.741 857.377 273.016V263.32H858.657ZM867.315 267H868.659L865.331 275H864.051L860.723 267H862.179L864.707 273.704L867.315 267ZM874.801 269.832C874.801 269.235 874.641 268.776 874.321 268.456C874.001 268.125 873.547 267.96 872.961 267.96C872.406 267.96 871.937 268.083 871.553 268.328C871.169 268.563 870.886 268.947 870.705 269.48L869.665 268.84C869.878 268.243 870.273 267.763 870.849 267.4C871.425 267.027 872.139 266.84 872.993 266.84C873.569 266.84 874.091 266.941 874.561 267.144C875.03 267.336 875.398 267.635 875.665 268.04C875.942 268.435 876.081 268.947 876.081 269.576V273.448C876.081 273.832 876.283 274.024 876.689 274.024C876.891 274.024 877.089 273.997 877.281 273.944L877.217 274.952C877.003 275.059 876.726 275.112 876.385 275.112C876.075 275.112 875.798 275.053 875.553 274.936C875.307 274.819 875.115 274.643 874.977 274.408C874.838 274.163 874.769 273.859 874.769 273.496V273.336L875.089 273.384C874.961 273.8 874.742 274.141 874.433 274.408C874.123 274.664 873.777 274.856 873.393 274.984C873.009 275.101 872.63 275.16 872.257 275.16C871.787 275.16 871.35 275.08 870.945 274.92C870.539 274.76 870.214 274.52 869.969 274.2C869.734 273.869 869.617 273.464 869.617 272.984C869.617 272.387 869.814 271.896 870.209 271.512C870.614 271.117 871.174 270.851 871.889 270.712L875.057 270.088V271.144L872.481 271.672C871.958 271.779 871.569 271.928 871.313 272.12C871.057 272.312 870.929 272.579 870.929 272.92C870.929 273.251 871.057 273.523 871.313 273.736C871.579 273.939 871.953 274.04 872.433 274.04C872.742 274.04 873.035 274.003 873.313 273.928C873.601 273.843 873.857 273.72 874.081 273.56C874.305 273.389 874.481 273.181 874.609 272.936C874.737 272.68 874.801 272.381 874.801 272.04V269.832ZM879.191 275V267H880.311L880.423 268.792L880.215 268.616C880.386 268.189 880.615 267.848 880.903 267.592C881.191 267.325 881.522 267.133 881.895 267.016C882.279 266.899 882.674 266.84 883.079 266.84C883.655 266.84 884.178 266.952 884.647 267.176C885.116 267.389 885.49 267.72 885.767 268.168C886.055 268.616 886.199 269.187 886.199 269.88V275H884.919V270.328C884.919 269.443 884.727 268.829 884.343 268.488C883.97 268.136 883.506 267.96 882.951 267.96C882.567 267.96 882.183 268.051 881.799 268.232C881.415 268.413 881.095 268.707 880.839 269.112C880.594 269.517 880.471 270.061 880.471 270.744V275H879.191ZM889.737 265.464C889.449 265.464 889.215 265.379 889.033 265.208C888.863 265.027 888.777 264.792 888.777 264.504C888.777 264.216 888.863 263.987 889.033 263.816C889.215 263.635 889.449 263.544 889.737 263.544C890.025 263.544 890.255 263.635 890.425 263.816C890.607 263.987 890.697 264.216 890.697 264.504C890.697 264.792 890.607 265.027 890.425 265.208C890.255 265.379 890.025 265.464 889.737 265.464ZM890.377 267V275H889.097V267H890.377ZM898.019 269.832C898.019 269.235 897.859 268.776 897.539 268.456C897.219 268.125 896.766 267.96 896.179 267.96C895.625 267.96 895.155 268.083 894.771 268.328C894.387 268.563 894.105 268.947 893.923 269.48L892.883 268.84C893.097 268.243 893.491 267.763 894.067 267.4C894.643 267.027 895.358 266.84 896.211 266.84C896.787 266.84 897.31 266.941 897.779 267.144C898.249 267.336 898.617 267.635 898.883 268.04C899.161 268.435 899.299 268.947 899.299 269.576V273.448C899.299 273.832 899.502 274.024 899.907 274.024C900.11 274.024 900.307 273.997 900.499 273.944L900.435 274.952C900.222 275.059 899.945 275.112 899.603 275.112C899.294 275.112 899.017 275.053 898.771 274.936C898.526 274.819 898.334 274.643 898.195 274.408C898.057 274.163 897.987 273.859 897.987 273.496V273.336L898.307 273.384C898.179 273.8 897.961 274.141 897.651 274.408C897.342 274.664 896.995 274.856 896.611 274.984C896.227 275.101 895.849 275.16 895.475 275.16C895.006 275.16 894.569 275.08 894.163 274.92C893.758 274.76 893.433 274.52 893.187 274.2C892.953 273.869 892.835 273.464 892.835 272.984C892.835 272.387 893.033 271.896 893.427 271.512C893.833 271.117 894.393 270.851 895.107 270.712L898.275 270.088V271.144L895.699 271.672C895.177 271.779 894.787 271.928 894.531 272.12C894.275 272.312 894.147 272.579 894.147 272.92C894.147 273.251 894.275 273.523 894.531 273.736C894.798 273.939 895.171 274.04 895.651 274.04C895.961 274.04 896.254 274.003 896.531 273.928C896.819 273.843 897.075 273.72 897.299 273.56C897.523 273.389 897.699 273.181 897.827 272.936C897.955 272.68 898.019 272.381 898.019 272.04V269.832Z" fill="#1A2F55"/>
</g>
</g>
</g>
<defs>
<filter id="filter0_b_2021_619" x="80" y="104" width="149" height="54" filterUnits="userSpaceOnUse" color-interpolation-filters="sRGB">
<feFlood flood-opacity="0" result="BackgroundImageFix"/>
<feGaussianBlur in="BackgroundImageFix" stdDeviation="3.5"/>
<feComposite in2="SourceAlpha" operator="in" result="effect1_backgroundBlur_2021_619"/>
<feBlend mode="normal" in="SourceGraphic" in2="effect1_backgroundBlur_2021_619" result="shape"/>
</filter>
<filter id="filter1_d_2021_619" x="64" y="91" width="185" height="90" filterUnits="userSpaceOnUse" color-interpolation-filters="sRGB">
<feFlood flood-opacity="0" result="BackgroundImageFix"/>
<feColorMatrix in="SourceAlpha" type="matrix" values="0 0 0 0 0 0 0 0 0 0 0 0 0 0 0 0 0 0 127 0" result="hardAlpha"/>
<feMorphology radius="5" operator="dilate" in="SourceAlpha" result="effect1_dropShadow_2021_619"/>
<feOffset dx="2" dy="5"/>
<feGaussianBlur stdDeviation="10"/>
<feComposite in2="hardAlpha" operator="out"/>
<feColorMatrix type="matrix" values="0 0 0 0 0.781136 0 0 0 0 0.843453 0 0 0 0 0.952506 0 0 0 0.5 0"/>
<feBlend mode="normal" in2="BackgroundImageFix" result="effect1_dropShadow_2021_619"/>
<feBlend mode="normal" in="SourceGraphic" in2="effect1_dropShadow_2021_619" result="shape"/>
</filter>
<filter id="filter2_b_2021_619" x="154" y="243" width="149" height="54" filterUnits="userSpaceOnUse" color-interpolation-filters="sRGB">
<feFlood flood-opacity="0" result="BackgroundImageFix"/>
<feGaussianBlur in="BackgroundImageFix" stdDeviation="3.5"/>
<feComposite in2="SourceAlpha" operator="in" result="effect1_backgroundBlur_2021_619"/>
<feBlend mode="normal" in="SourceGraphic" in2="effect1_backgroundBlur_2021_619" result="shape"/>
</filter>
<filter id="filter3_d_2021_619" x="138" y="230" width="185" height="90" filterUnits="userSpaceOnUse" color-interpolation-filters="sRGB">
<feFlood flood-opacity="0" result="BackgroundImageFix"/>
<feColorMatrix in="SourceAlpha" type="matrix" values="0 0 0 0 0 0 0 0 0 0 0 0 0 0 0 0 0 0 127 0" result="hardAlpha"/>
<feMorphology radius="5" operator="dilate" in="SourceAlpha" result="effect1_dropShadow_2021_619"/>
<feOffset dx="2" dy="5"/>
<feGaussianBlur stdDeviation="10"/>
<feComposite in2="hardAlpha" operator="out"/>
<feColorMatrix type="matrix" values="0 0 0 0 0.781136 0 0 0 0 0.843453 0 0 0 0 0.952506 0 0 0 0.5 0"/>
<feBlend mode="normal" in2="BackgroundImageFix" result="effect1_dropShadow_2021_619"/>
<feBlend mode="normal" in="SourceGraphic" in2="effect1_dropShadow_2021_619" result="shape"/>
</filter>
<filter id="filter4_b_2021_619" x="402" y="28" width="149" height="54" filterUnits="userSpaceOnUse" color-interpolation-filters="sRGB">
<feFlood flood-opacity="0" result="BackgroundImageFix"/>
<feGaussianBlur in="BackgroundImageFix" stdDeviation="3.5"/>
<feComposite in2="SourceAlpha" operator="in" result="effect1_backgroundBlur_2021_619"/>
<feBlend mode="normal" in="SourceGraphic" in2="effect1_backgroundBlur_2021_619" result="shape"/>
</filter>
<filter id="filter5_d_2021_619" x="386" y="15" width="185" height="90" filterUnits="userSpaceOnUse" color-interpolation-filters="sRGB">
<feFlood flood-opacity="0" result="BackgroundImageFix"/>
<feColorMatrix in="SourceAlpha" type="matrix" values="0 0 0 0 0 0 0 0 0 0 0 0 0 0 0 0 0 0 127 0" result="hardAlpha"/>
<feMorphology radius="5" operator="dilate" in="SourceAlpha" result="effect1_dropShadow_2021_619"/>
<feOffset dx="2" dy="5"/>
<feGaussianBlur stdDeviation="10"/>
<feComposite in2="hardAlpha" operator="out"/>
<feColorMatrix type="matrix" values="0 0 0 0 0.781136 0 0 0 0 0.843453 0 0 0 0 0.952506 0 0 0 0.5 0"/>
<feBlend mode="normal" in2="BackgroundImageFix" result="effect1_dropShadow_2021_619"/>
<feBlend mode="normal" in="SourceGraphic" in2="effect1_dropShadow_2021_619" result="shape"/>
</filter>
<filter id="filter6_b_2021_619" x="474" y="181" width="149" height="54" filterUnits="userSpaceOnUse" color-interpolation-filters="sRGB">
<feFlood flood-opacity="0" result="BackgroundImageFix"/>
<feGaussianBlur in="BackgroundImageFix" stdDeviation="3.5"/>
<feComposite in2="SourceAlpha" operator="in" result="effect1_backgroundBlur_2021_619"/>
<feBlend mode="normal" in="SourceGraphic" in2="effect1_backgroundBlur_2021_619" result="shape"/>
</filter>
<filter id="filter7_d_2021_619" x="458" y="168" width="185" height="90" filterUnits="userSpaceOnUse" color-interpolation-filters="sRGB">
<feFlood flood-opacity="0" result="BackgroundImageFix"/>
<feColorMatrix in="SourceAlpha" type="matrix" values="0 0 0 0 0 0 0 0 0 0 0 0 0 0 0 0 0 0 127 0" result="hardAlpha"/>
<feMorphology radius="5" operator="dilate" in="SourceAlpha" result="effect1_dropShadow_2021_619"/>
<feOffset dx="2" dy="5"/>
<feGaussianBlur stdDeviation="10"/>
<feComposite in2="hardAlpha" operator="out"/>
<feColorMatrix type="matrix" values="0 0 0 0 0.781136 0 0 0 0 0.843453 0 0 0 0 0.952506 0 0 0 0.5 0"/>
<feBlend mode="normal" in2="BackgroundImageFix" result="effect1_dropShadow_2021_619"/>
<feBlend mode="normal" in="SourceGraphic" in2="effect1_dropShadow_2021_619" result="shape"/>
</filter>
<filter id="filter8_b_2021_619" x="669" y="104" width="149" height="54" filterUnits="userSpaceOnUse" color-interpolation-filters="sRGB">
<feFlood flood-opacity="0" result="BackgroundImageFix"/>
<feGaussianBlur in="BackgroundImageFix" stdDeviation="3.5"/>
<feComposite in2="SourceAlpha" operator="in" result="effect1_backgroundBlur_2021_619"/>
<feBlend mode="normal" in="SourceGraphic" in2="effect1_backgroundBlur_2021_619" result="shape"/>
</filter>
<filter id="filter9_d_2021_619" x="653" y="91" width="185" height="90" filterUnits="userSpaceOnUse" color-interpolation-filters="sRGB">
<feFlood flood-opacity="0" result="BackgroundImageFix"/>
<feColorMatrix in="SourceAlpha" type="matrix" values="0 0 0 0 0 0 0 0 0 0 0 0 0 0 0 0 0 0 127 0" result="hardAlpha"/>
<feMorphology radius="5" operator="dilate" in="SourceAlpha" result="effect1_dropShadow_2021_619"/>
<feOffset dx="2" dy="5"/>
<feGaussianBlur stdDeviation="10"/>
<feComposite in2="hardAlpha" operator="out"/>
<feColorMatrix type="matrix" values="0 0 0 0 0.781136 0 0 0 0 0.843453 0 0 0 0 0.952506 0 0 0 0.5 0"/>
<feBlend mode="normal" in2="BackgroundImageFix" result="effect1_dropShadow_2021_619"/>
<feBlend mode="normal" in="SourceGraphic" in2="effect1_dropShadow_2021_619" result="shape"/>
</filter>
<filter id="filter10_b_2021_619" x="777" y="243" width="149" height="54" filterUnits="userSpaceOnUse" color-interpolation-filters="sRGB">
<feFlood flood-opacity="0" result="BackgroundImageFix"/>
<feGaussianBlur in="BackgroundImageFix" stdDeviation="3.5"/>
<feComposite in2="SourceAlpha" operator="in" result="effect1_backgroundBlur_2021_619"/>
<feBlend mode="normal" in="SourceGraphic" in2="effect1_backgroundBlur_2021_619" result="shape"/>
</filter>
<filter id="filter11_d_2021_619" x="761" y="230" width="185" height="90" filterUnits="userSpaceOnUse" color-interpolation-filters="sRGB">
<feFlood flood-opacity="0" result="BackgroundImageFix"/>
<feColorMatrix in="SourceAlpha" type="matrix" values="0 0 0 0 0 0 0 0 0 0 0 0 0 0 0 0 0 0 127 0" result="hardAlpha"/>
<feMorphology radius="5" operator="dilate" in="SourceAlpha" result="effect1_dropShadow_2021_619"/>
<feOffset dx="2" dy="5"/>
<feGaussianBlur stdDeviation="10"/>
<feComposite in2="hardAlpha" operator="out"/>
<feColorMatrix type="matrix" values="0 0 0 0 0.781136 0 0 0 0 0.843453 0 0 0 0 0.952506 0 0 0 0.5 0"/>
<feBlend mode="normal" in2="BackgroundImageFix" result="effect1_dropShadow_2021_619"/>
<feBlend mode="normal" in="SourceGraphic" in2="effect1_dropShadow_2021_619" result="shape"/>
</filter>
<linearGradient id="paint0_linear_2021_619" x1="478.821" y1="254.169" x2="626.881" y2="459.581" gradientUnits="userSpaceOnUse">
<stop stop-color="#04AFF6"/>
<stop offset="1" stop-color="#026690"/>
</linearGradient>
<linearGradient id="paint1_linear_2021_619" x1="282.256" y1="498.706" x2="563.572" y2="212.549" gradientUnits="userSpaceOnUse">
<stop stop-color="#04AFF6"/>
<stop offset="1" stop-color="#026690"/>
</linearGradient>
</defs>
</svg>
