<svg width="33" height="39" viewBox="0 0 33 39" fill="none" xmlns="http://www.w3.org/2000/svg">
<path d="M16.1468 0H8.06531V21.9118L16.1468 19.1667V0Z" fill="#04AFF6"/>
<path d="M32.2773 0H24.212V16.4379L32.2773 13.6928V0Z" fill="#04AFF6"/>
<path d="M0 24.6406V38.5622H8.06528V21.9119L0 24.6406Z" fill="#0D1D38"/>
<path d="M16.1467 19.1667V38.5622H24.212V16.438L16.1467 19.1667Z" fill="#0D1D38"/>
<path d="M29.7832 37.1242V38.464H29.4431V37.1242H28.941V36.8137H30.2853V37.1242H29.7832ZM32.0667 38.464V37.4183L31.6133 38.464H31.3541L30.9169 37.4183V38.464H30.5768V36.8137H31.014L31.4999 37.9575L31.9858 36.8137H32.4068V38.464H32.0829H32.0667Z" fill="#74777B"/>
</svg>
