<svg width="22" height="22" viewBox="0 0 22 22" fill="none" xmlns="http://www.w3.org/2000/svg">
<path d="M19.5629 0H1.52286C0.681772 0 0 0.681772 0 1.52286V19.5629C0 20.4039 0.681772 21.0857 1.52286 21.0857H19.5629C20.4039 21.0857 21.0857 20.4039 21.0857 19.5629V1.52286C21.0857 0.681772 20.4039 0 19.5629 0ZM6.25426 17.9674H3.1242V7.9048H6.25426V17.9674ZM4.6904 6.52954C3.68649 6.52954 2.87586 5.71657 2.87586 4.71617C2.87586 3.7146 3.68531 2.9028 4.6904 2.9028C5.6908 2.9028 6.5026 3.71577 6.5026 4.71617C6.5026 5.71774 5.6908 6.52954 4.6904 6.52954ZM17.9685 17.9674H14.842V13.0743C14.842 11.9076 14.8221 10.4058 13.2172 10.4058C11.5901 10.4058 11.3418 11.678 11.3418 12.99V17.9674H8.21757V7.9048H11.2153V9.28006H11.2586C11.6756 8.48934 12.6959 7.65529 14.2176 7.65529C17.384 7.65529 17.9697 9.73926 17.9697 12.4488L17.9685 17.9674Z" fill="black"/>
</svg>
