<svg width="19" height="19" viewBox="0 0 19 19" fill="none" xmlns="http://www.w3.org/2000/svg">
<path d="M9.49997 11C11.433 11 13 9.43298 13 7.5C13 5.56701 11.433 4 9.49997 4C7.567 4 6 5.56701 6 7.5C6 9.43298 7.567 11 9.49997 11Z" stroke="#04AFF6" stroke-width="1.5" stroke-linecap="round" stroke-linejoin="round"/>
<path d="M4 16C4.57478 15.0838 5.38261 14.3267 6.34582 13.8014C7.30902 13.276 8.39525 13 9.5 13C10.6048 13 11.6909 13.276 12.6541 13.8014C13.6174 14.3267 14.4252 15.0838 15 16" stroke="#04AFF6" stroke-width="1.5" stroke-linecap="round" stroke-linejoin="round"/>
<path d="M9.5 18C14.1945 18 18 14.1945 18 9.5C18 4.80558 14.1945 1 9.5 1C4.80558 1 1 4.80558 1 9.5C1 14.1945 4.80558 18 9.5 18Z" stroke="#04AFF6" stroke-width="1.5" stroke-linecap="round" stroke-linejoin="round"/>
</svg>
