<svg width="193" height="50" viewBox="0 0 193 50" fill="none" xmlns="http://www.w3.org/2000/svg">
<g clip-path="url(#clip0_1_49)">
<path d="M16.1468 0H8.06531V21.9118L16.1468 19.1667V0Z" fill="#04AFF6"/>
<path d="M32.2773 0H24.212V16.4379L32.2773 13.6928V0Z" fill="#04AFF6"/>
<path d="M0 24.6406V38.5622H8.06528V21.9119L0 24.6406Z" fill="#0D1D38"/>
<path d="M16.1467 19.1667V38.5622H24.212V16.438L16.1467 19.1667Z" fill="#0D1D38"/>
<path d="M29.7832 37.1242V38.464H29.4431V37.1242H28.941V36.8137H30.2853V37.1242H29.7832ZM32.0667 38.464V37.4183L31.6133 38.464H31.3541L30.9169 37.4183V38.464H30.5768V36.8137H31.014L31.4999 37.9575L31.9858 36.8137H32.4068V38.464H32.0829H32.0667Z" fill="#74777B"/>
<path d="M64.5871 34.477V22.2384H50.6429V34.477H46.8694V6.92798H50.6429V18.6927H64.5871V6.92798H68.3606V34.477H64.5871Z" fill="#0D1D38"/>
<path d="M73.2355 34.477V15.7842H76.8146V34.477H73.2355Z" fill="#0D1D38"/>
<path d="M83.2441 34.6568C83.5195 37.2549 85.4791 39.2484 88.2809 39.2484C92.1678 39.2484 93.9331 37.2222 93.9331 33.1863V30.5065C93.0423 32.2222 91.0503 33.5784 88.2809 33.5784C83.3575 33.5784 79.7783 29.8039 79.7783 24.5261C79.7783 19.2484 83.2117 15.4412 88.2809 15.4412C91.1313 15.4412 93.0585 16.5359 93.9816 18.3987V15.8006H97.5608V33.0882C97.5608 37.8268 95.2449 42.451 88.2809 42.451C83.6652 42.451 80.1994 39.4935 79.7297 35.4902L83.2279 34.6732L83.2441 34.6568ZM94.1112 24.5261C94.1112 20.915 91.9572 18.5457 88.8315 18.5457C85.7058 18.5457 83.4871 20.915 83.4871 24.5261C83.4871 28.1372 85.5601 30.5065 88.8315 30.5065C92.103 30.5065 94.1112 28.1372 94.1112 24.5261Z" fill="#0D1D38"/>
<path d="M105.27 34.4771H101.642V6.33984H105.27V17.9575C106.614 15.9804 108.768 15.2451 110.89 15.2451C115.311 15.2451 117.514 18.464 117.514 22.6307V34.4771H113.902V23.2516C113.902 20.6536 112.817 18.5457 109.594 18.5457C106.825 18.5457 105.351 20.7189 105.286 23.4804V34.4771H105.27Z" fill="#0D1D38"/>
<path d="M129.628 34.477H125.968L118.453 15.7842H122.534L127.814 30.1959L133.126 15.7842H137.013L129.628 34.477Z" fill="#0D1D38"/>
<path d="M139.037 34.477V15.7842H142.616V34.477H139.037Z" fill="#0D1D38"/>
<path d="M163.217 29.1503C162.18 32.4509 159.217 35.049 154.892 35.049C149.92 35.049 145.58 31.3889 145.58 25.0653C145.58 19.1993 149.775 15.196 154.439 15.196C160.14 15.196 163.33 19.1666 163.33 24.9836C163.33 25.4575 163.298 25.915 163.249 26.1438H149.305C149.386 29.4771 151.767 31.8137 154.892 31.8137C158.018 31.8137 159.395 30.147 160.091 28.0392L163.217 29.134V29.1503ZM159.557 23.2026C159.476 20.5228 157.743 18.4313 154.471 18.4313C151.427 18.4313 149.58 20.8006 149.435 23.2026H159.557Z" fill="#0D1D38"/>
<path d="M180.287 15.7842L185.097 29.8528L189.178 15.7842H192.984L186.975 34.477H183.234L178.311 20.2613L173.501 34.477H169.695L163.605 15.7842H167.573L171.736 29.8528L176.546 15.7842H180.287Z" fill="#0D1D38"/>
<path d="M76.8145 7.76147L73.2354 8.98696V12.304H76.8145V7.76147Z" fill="#0D1D38"/>
<path d="M142.616 7.76147L139.037 8.98696V12.304H142.616V7.76147Z" fill="#0D1D38"/>
<path d="M104.347 40.866H106.112L108.509 48.1699H107.116L106.533 46.3562H103.764L103.197 48.1699H101.934L104.347 40.866ZM104.071 45.3758H106.209L105.14 41.9771L104.071 45.3758Z" fill="#474E59"/>
<path d="M111.521 40.866H113.319L115.23 45.8496L117.092 40.866H118.874V48.1699H117.53V42.647L115.376 48.1699H114.938L112.736 42.647V48.1699H111.521V40.866Z" fill="#474E59"/>
<path d="M120.364 46.258V42.8267H121.595V46.111C121.595 46.9116 121.935 47.2874 122.631 47.2874C123.295 47.2874 123.862 46.8626 123.862 46.0129V42.8267H125.093V48.1698H123.862V47.3365C123.603 47.8593 123.036 48.2842 122.178 48.2842C121.141 48.2842 120.348 47.6796 120.348 46.258H120.364Z" fill="#474E59"/>
<path d="M126.486 40.3594H127.717V48.1698H126.486V40.3594Z" fill="#474E59"/>
<path d="M129.109 40.3594H130.34V48.1698H129.109V40.3594Z" fill="#474E59"/>
<path d="M131.425 45.5555V45.4738C131.425 43.8235 132.543 42.7124 134.065 42.7124C135.377 42.7124 136.559 43.4967 136.559 45.4085V45.768H132.672C132.705 46.781 133.223 47.3529 134.13 47.3529C134.875 47.3529 135.247 47.0588 135.345 46.5359H136.527C136.349 47.6634 135.458 48.268 134.098 48.268C132.543 48.268 131.409 47.2385 131.409 45.5555H131.425ZM135.345 44.951C135.28 44.0359 134.826 43.6274 134.065 43.6274C133.304 43.6274 132.834 44.134 132.705 44.951H135.345Z" fill="#474E59"/>
<path d="M137.661 42.8268H138.891V43.8235C139.231 43.1536 139.717 42.7451 140.608 42.7451V43.9052C139.539 43.9052 138.891 44.2647 138.891 45.3922V48.17H137.661V42.8268Z" fill="#474E59"/>
<path d="M143.313 44.575V44.4933C143.313 42.3038 144.819 40.7678 146.827 40.7678C148.495 40.7678 149.775 41.6012 149.937 43.3168H148.576C148.43 42.3528 147.88 41.8463 146.843 41.8463C145.564 41.8463 144.738 42.843 144.738 44.477V44.5587C144.738 46.209 145.515 47.1731 146.86 47.1731C147.864 47.1731 148.576 46.6665 148.706 45.6371H150.018C149.807 47.4018 148.576 48.2842 146.843 48.2842C144.576 48.2842 143.313 46.8299 143.313 44.575Z" fill="#474E59"/>
<path d="M150.811 45.5555V45.4738C150.811 43.8235 151.977 42.7124 153.532 42.7124C155.087 42.7124 156.253 43.8072 156.253 45.4412V45.5229C156.253 47.1895 155.087 48.268 153.532 48.268C151.977 48.268 150.811 47.1732 150.811 45.5555ZM154.99 45.5392V45.4738C154.99 44.3627 154.439 43.6928 153.532 43.6928C152.625 43.6928 152.058 44.3627 152.058 45.4575V45.5392C152.058 46.634 152.593 47.3202 153.532 47.3202C154.471 47.3202 154.99 46.634 154.99 45.5392Z" fill="#474E59"/>
<path d="M157.306 42.8268H158.536V43.6438C158.796 43.1372 159.362 42.7124 160.14 42.7124C160.836 42.7124 161.371 43.0065 161.646 43.6765C162.051 43.0065 162.78 42.7124 163.444 42.7124C164.415 42.7124 165.209 43.317 165.209 44.7876V48.1699H163.978V44.8693C163.978 44.085 163.638 43.7418 163.039 43.7418C162.439 43.7418 161.873 44.1503 161.873 44.9673V48.1699H160.642V44.8693C160.642 44.085 160.302 43.7418 159.702 43.7418C159.103 43.7418 158.536 44.1503 158.536 44.9673V48.1699H157.306V42.8268Z" fill="#474E59"/>
<path d="M166.553 42.8268H167.784V43.6928C168.075 43.1863 168.739 42.7288 169.517 42.7288C170.845 42.7288 171.865 43.7255 171.865 45.4412V45.5229C171.865 47.2386 170.877 48.2843 169.517 48.2843C168.675 48.2843 168.075 47.8595 167.784 47.3366V50H166.553V42.8268ZM170.618 45.5392V45.4575C170.618 44.2647 170.003 43.6928 169.209 43.6928C168.351 43.6928 167.751 44.281 167.751 45.4575V45.5392C167.751 46.732 168.334 47.3039 169.225 47.3039C170.116 47.3039 170.618 46.6994 170.618 45.5392Z" fill="#474E59"/>
<path d="M172.578 46.6993C172.578 45.4575 173.776 45 175.299 45H175.963V44.7222C175.963 44.0033 175.72 43.6438 175.007 43.6438C174.375 43.6438 174.052 43.9542 173.987 44.4771H172.804C172.902 43.2353 173.89 42.7124 175.072 42.7124C176.254 42.7124 177.193 43.2026 177.193 44.6568V48.1536H175.995V47.5C175.655 47.9575 175.185 48.2516 174.375 48.2516C173.404 48.2516 172.61 47.7778 172.61 46.6667L172.578 46.6993ZM175.963 46.3072V45.7843H175.331C174.392 45.7843 173.809 45.9967 173.809 46.6503C173.809 47.0915 174.052 47.4019 174.667 47.4019C175.412 47.4019 175.979 47.0098 175.979 46.3235L175.963 46.3072Z" fill="#474E59"/>
<path d="M178.521 42.8268H179.752V43.6765C180.011 43.1536 180.594 42.7124 181.469 42.7124C182.538 42.7124 183.283 43.3333 183.283 44.8039V48.1699H182.052V44.9183C182.052 44.1176 181.728 43.7418 180.999 43.7418C180.319 43.7418 179.752 44.1667 179.752 45.0163V48.1536H178.521V42.8104V42.8268Z" fill="#474E59"/>
<path d="M185.971 47.6306L183.882 42.8267H185.21L186.619 46.2744L187.915 42.8267H189.113L186.23 49.9999H185.032L185.987 47.6306H185.971Z" fill="#474E59"/>
</g>
<defs>
<clipPath id="clip0_1_49">
<rect width="193" height="50" fill="white"/>
</clipPath>
</defs>
</svg>
