<svg width="21" height="24" viewBox="0 0 21 24" fill="none" xmlns="http://www.w3.org/2000/svg">
<path d="M1.00003 4.09988V11.5362C1.00005 13.8867 1.71233 16.182 3.04298 18.1196C4.37363 20.0571 6.26018 21.546 8.45395 22.3899L9.47066 22.7806C10.1477 23.041 10.8973 23.041 11.5744 22.7806L12.5911 22.3899C14.7849 21.546 16.6714 20.0571 18.0021 18.1196C19.3327 16.182 20.045 13.8867 20.045 11.5362V4.09988C20.0469 3.82004 19.9679 3.54563 19.8175 3.30964C19.6671 3.07365 19.4517 2.88614 19.1973 2.76966C16.4625 1.57596 13.5064 0.973233 10.5225 1.00091C7.53868 0.973233 4.5826 1.57596 1.84778 2.76966C1.59334 2.88614 1.37796 3.07365 1.22757 3.30964C1.07717 3.54563 0.998161 3.82004 1.00003 4.09988Z" stroke="#0D1D38" stroke-width="1.6" stroke-linecap="round" stroke-linejoin="round"/>
<path d="M15.6011 11.2565C15.4607 12.2291 15.0438 13.1409 14.4 13.8833C13.7562 14.6257 12.9126 15.1675 11.9696 15.4441C11.0267 15.7208 10.0241 15.7206 9.08127 15.4437C8.13841 15.1668 7.29498 14.6247 6.65139 13.8821C6.0078 13.1395 5.59116 12.2276 5.45106 11.255C5.31096 10.2823 5.45332 9.28992 5.86117 8.39587C6.26902 7.50182 6.9252 6.7438 7.75158 6.21204C8.57796 5.68029 9.53974 5.3972 10.5224 5.39648" stroke="#04AFF6" stroke-width="1.6" stroke-linecap="round" stroke-linejoin="round"/>
<path d="M15.6499 6.67773L10.9756 11.3521C10.8553 11.4721 10.6923 11.5394 10.5224 11.5394C10.3525 11.5394 10.1895 11.4721 10.0692 11.3521L8.60425 9.88218" stroke="#04AFF6" stroke-width="1.6" stroke-linecap="round" stroke-linejoin="round"/>
</svg>
