<svg width="24" height="24" viewBox="0 0 24 24" fill="none" xmlns="http://www.w3.org/2000/svg">
<path d="M2.465 3.93164H21.51C21.51 3.93164 22.975 3.93164 22.975 5.39664V21.5116C22.975 21.5116 22.975 22.9766 21.51 22.9766H2.465C2.465 22.9766 1 22.9766 1 21.5116V5.39664C1 5.39664 1 3.93164 2.465 3.93164Z" stroke="#0D1D38" stroke-width="1.5" stroke-linejoin="round"/>
<path d="M1 9.79102H22.975" stroke="#0D1D38" stroke-width="1.5" stroke-linejoin="round"/>
<path d="M6.86011 6.1275V1" stroke="#0D1D38" stroke-width="1.5" stroke-linecap="round" stroke-linejoin="round"/>
<path d="M17.115 6.1275V1" stroke="#0D1D38" stroke-width="1.5" stroke-linecap="round" stroke-linejoin="round"/>
<path d="M13.4526 13.4531H11.467C11.1623 13.4528 10.8669 13.5586 10.6318 13.7524C10.3966 13.9463 10.2364 14.216 10.1786 14.5152C10.1208 14.8144 10.169 15.1244 10.3151 15.3918C10.4611 15.6593 10.6957 15.8676 10.9787 15.9807L12.9945 16.7865C13.2768 16.9001 13.5108 17.1084 13.6563 17.3756C13.8019 17.6428 13.8499 17.9524 13.7921 18.2512C13.7344 18.5499 13.5745 18.8193 13.3398 19.0131C13.1052 19.2068 12.8105 19.3129 12.5062 19.3131H10.5226" stroke="#04AFF6" stroke-width="1.5" stroke-linecap="round" stroke-linejoin="round"/>
<path d="M11.9875 13.4532V12.7207" stroke="#04AFF6" stroke-width="1.5" stroke-linecap="round" stroke-linejoin="round"/>
<path d="M11.9875 20.045V19.3125" stroke="#04AFF6" stroke-width="1.5" stroke-linecap="round" stroke-linejoin="round"/>
</svg>
