<svg width="24" height="24" viewBox="0 0 24 24" fill="none" xmlns="http://www.w3.org/2000/svg">
<path d="M13.1694 9.17578C15.9266 9.84133 17.9232 12.3132 17.9232 15.1654V16.1161" stroke="#04AFF6" stroke-width="1.5" stroke-miterlimit="10" stroke-linecap="round" stroke-linejoin="round"/>
<path d="M10.3174 16.1172V8.51128C10.3174 7.94084 10.6977 7.56055 11.2681 7.56055H12.2189C12.7893 7.56055 13.1696 7.94084 13.1696 8.51128V16.1172" stroke="#04AFF6" stroke-width="1.5" stroke-miterlimit="10" stroke-linecap="round" stroke-linejoin="round"/>
<path d="M19.8246 18.0187C19.8246 18.589 19.4444 18.9693 18.8739 18.9693H4.61285C4.0424 18.9693 3.66211 18.589 3.66211 18.0187V17.0679C3.66211 16.4974 4.0424 16.1172 4.61285 16.1172H18.8739C19.4444 16.1172 19.8246 16.4974 19.8246 17.0679V18.0187Z" stroke="#04AFF6" stroke-width="1.5" stroke-miterlimit="10" stroke-linecap="round" stroke-linejoin="round"/>
<path d="M10.3174 9.17578C7.56027 9.84133 5.56372 12.3132 5.56372 15.1654V16.1161" stroke="#04AFF6" stroke-width="1.5" stroke-miterlimit="10" stroke-linecap="round" stroke-linejoin="round"/>
<path d="M21.536 22.3916C22.0113 22.3916 22.4867 22.0114 22.4867 21.4409V9.55665C22.4867 9.27143 22.2965 8.9862 22.1064 8.79606L11.7433 1L1.38029 8.79606C1.19014 8.9862 1 9.27143 1 9.55665V21.4409C1 21.9162 1.38029 22.3916 1.95074 22.3916H21.536Z" stroke="#0D1D38" stroke-width="1.5" stroke-miterlimit="10" stroke-linecap="round" stroke-linejoin="round"/>
</svg>
