<svg width="24" height="24" viewBox="0 0 24 24" fill="none" xmlns="http://www.w3.org/2000/svg">
<path d="M2.95333 1H21.0217C21.0217 1 22.975 1 22.975 2.95333V21.0217C22.975 21.0217 22.975 22.975 21.0217 22.975H2.95333C2.95333 22.975 1 22.975 1 21.0217V2.95333C1 2.95333 1 1 2.95333 1Z" stroke="#0D1D38" stroke-width="1.6" stroke-linecap="round" stroke-linejoin="round"/>
<path d="M15.1618 13.209V17.3969L11.9876 18.3668L8.81348 17.3969V13.209" stroke="#04AFF6" stroke-width="1.6" stroke-linecap="round" stroke-linejoin="round"/>
<path d="M18.3358 12.0188L11.9875 9.63867L5.63916 12.0188L11.9875 14.3999L18.3358 12.0188Z" stroke="#04AFF6" stroke-width="1.6" stroke-linecap="round" stroke-linejoin="round"/>
<path d="M5.63916 12.0195V15.1937" stroke="#04AFF6" stroke-width="1.6" stroke-linecap="round" stroke-linejoin="round"/>
<path d="M1 4.9082H22.975" stroke="#0D1D38" stroke-width="1.6" stroke-linecap="round" stroke-linejoin="round"/>
<path d="M19.0684 1V4.90667" stroke="#0D1D38" stroke-width="1.6" stroke-linecap="round" stroke-linejoin="round"/>
<path d="M15.6501 1V4.90667" stroke="#0D1D38" stroke-width="1.6" stroke-linecap="round" stroke-linejoin="round"/>
</svg>
