<svg width="22" height="24" viewBox="0 0 22 24" fill="none" xmlns="http://www.w3.org/2000/svg">
<path d="M21.0998 21.0998C21.0998 21.8927 20.457 22.5355 19.6641 22.5355H2.4357C1.64274 22.5355 1 21.8928 1 21.0998V2.4357C1 1.64274 1.64274 1 2.4357 1H16.7927C17.167 0.999707 17.5269 1.14377 17.7977 1.402L20.6691 4.16811C20.9416 4.43963 21.0963 4.80754 21.0998 5.19224V21.0998Z" stroke="#0D1D38" stroke-width="1.5" stroke-linecap="round" stroke-linejoin="round"/>
<path d="M16.075 9.61328H16.7928" stroke="#0D1D38" stroke-width="1.5" stroke-linecap="round" stroke-linejoin="round"/>
<path d="M14.6392 5.30664H16.7927" stroke="#0D1D38" stroke-width="1.5" stroke-linecap="round" stroke-linejoin="round"/>
<path d="M13.2034 13.9219H16.7926" stroke="#0D1D38" stroke-width="1.5" stroke-linecap="round" stroke-linejoin="round"/>
<path d="M5.30713 18.2285H16.7927" stroke="#0D1D38" stroke-width="1.5" stroke-linecap="round" stroke-linejoin="round"/>
<path d="M3.87134 8.89557C3.87134 12.2112 7.46059 14.2835 10.332 12.6257C11.6646 11.8562 12.4855 10.4343 12.4855 8.89557C12.4855 5.57999 8.89629 3.50769 6.02489 5.16549C4.69223 5.93491 3.87134 7.35684 3.87134 8.89557Z" stroke="#04AFF6" stroke-width="1.5" stroke-linecap="round" stroke-linejoin="round"/>
<path d="M4.58911 11.2783L8.17836 8.89499V4.58789" stroke="#04AFF6" stroke-width="1.5" stroke-linecap="round" stroke-linejoin="round"/>
</svg>
