<svg width="24" height="24" viewBox="0 0 24 24" fill="none" xmlns="http://www.w3.org/2000/svg">
<path d="M20.5344 11.2544C20.5344 10.8658 20.3801 10.4932 20.1053 10.2185C19.8306 9.94372 19.4579 9.78938 19.0694 9.78938C15.7019 9.78938 14.5572 7.73837 14.5201 7.66903C14.3894 7.42584 14.1957 7.22232 13.9592 7.07985C13.7227 6.93738 13.4523 6.86122 13.1762 6.85938C12.8984 6.86567 12.6282 6.95082 12.397 7.10491C12.1657 7.25899 11.9831 7.47564 11.8704 7.72959L6.01039 20.9146C5.93222 21.0904 5.88945 21.2799 5.88451 21.4723C5.87958 21.6647 5.91259 21.8561 5.98165 22.0358C6.05072 22.2154 6.15448 22.3796 6.28702 22.5191C6.41956 22.6587 6.57828 22.7707 6.75412 22.8489C6.92996 22.927 7.11948 22.9698 7.31185 22.9748C7.50422 22.9797 7.69568 22.9467 7.8753 22.8776C8.05491 22.8086 8.21917 22.7048 8.35868 22.5722C8.4982 22.4397 8.61024 22.281 8.68841 22.1051L11.1086 16.6524C11.5242 16.9108 11.8676 17.2702 12.1067 17.6972C12.3458 18.1241 12.4728 18.6047 12.4759 19.0941V21.5094C12.4759 21.8979 12.6303 22.2705 12.905 22.5453C13.1798 22.82 13.5524 22.9744 13.9409 22.9744C14.3295 22.9744 14.7021 22.82 14.9768 22.5453C15.2516 22.2705 15.4059 21.8979 15.4059 21.5094V19.099C15.4088 18.0393 15.1225 16.999 14.5778 16.0901C14.0331 15.1812 13.2506 14.4382 12.3148 13.9412L13.6343 10.9731C15.1919 12.1618 17.1109 12.7787 19.0694 12.7204C19.2619 12.7204 19.4525 12.6824 19.6303 12.6087C19.8081 12.5351 19.9696 12.4271 20.1057 12.2909C20.2417 12.1548 20.3496 11.9932 20.4232 11.8153C20.4967 11.6375 20.5345 11.4468 20.5344 11.2544Z" stroke="#04AFF6" stroke-width="1.56" stroke-linecap="round" stroke-linejoin="round"/>
<path d="M12.843 3.56375C12.843 4.2437 13.1131 4.8958 13.5939 5.3766C14.0747 5.85739 14.7268 6.1275 15.4068 6.1275C16.0867 6.1275 16.7388 5.85739 17.2196 5.3766C17.7004 4.8958 17.9705 4.2437 17.9705 3.56375C17.9705 2.8838 17.7004 2.2317 17.2196 1.7509C16.7388 1.27011 16.0867 1 15.4068 1C14.7268 1 14.0747 1.27011 13.5939 1.7509C13.1131 2.2317 12.843 2.8838 12.843 3.56375Z" stroke="#04AFF6" stroke-width="1.56" stroke-linecap="round" stroke-linejoin="round"/>
<path d="M20.3352 11.9883H22.9751" stroke="#0D1D38" stroke-width="1.56" stroke-linecap="round" stroke-linejoin="round"/>
<path d="M1 12H22" stroke="#0D1D38" stroke-width="1.56" stroke-linecap="round" stroke-linejoin="round"/>
<path d="M3.02856 11.9883V22.9758" stroke="#0D1D38" stroke-width="1.56" stroke-linecap="round" stroke-linejoin="round"/>
<path d="M20.3147 11.9883V22.9758" stroke="#0D1D38" stroke-width="1.56" stroke-linecap="round" stroke-linejoin="round"/>
</svg>
