<svg width="26" height="23" viewBox="0 0 26 23" fill="none" xmlns="http://www.w3.org/2000/svg">
<path d="M20 14.2C20 13.9878 19.9157 13.7843 19.7657 13.6343C19.6157 13.4843 19.4122 13.4 19.2 13.4H17.6V11.8C17.6 11.5878 17.5157 11.3843 17.3657 11.2343C17.2157 11.0843 17.0122 11 16.8 11H15.2C14.9878 11 14.7843 11.0843 14.6343 11.2343C14.4843 11.3843 14.4 11.5878 14.4 11.8V13.4H12.8C12.5878 13.4 12.3843 13.4843 12.2343 13.6343C12.0843 13.7843 12 13.9878 12 14.2V15.8C12 16.0122 12.0843 16.2157 12.2343 16.3657C12.3843 16.5157 12.5878 16.6 12.8 16.6H14.4V18.2C14.4 18.3051 14.4207 18.4091 14.4609 18.5061C14.5011 18.6032 14.56 18.6914 14.6343 18.7657C14.7086 18.84 14.7968 18.8989 14.8939 18.9391C14.9909 18.9793 15.0949 19 15.2 19H16.8C16.9051 19 17.0091 18.9793 17.1061 18.9391C17.2032 18.8989 17.2914 18.84 17.3657 18.7657C17.44 18.6914 17.4989 18.6032 17.5391 18.5061C17.5793 18.4091 17.6 18.3051 17.6 18.2V16.6H19.2C19.4122 16.6 19.6157 16.5157 19.7657 16.3657C19.9157 16.2157 20 16.0122 20 15.8V14.2Z" stroke="#04AFF6" stroke-width="1.5" stroke-linecap="round" stroke-linejoin="round"/>
<path d="M3.4 22H22.6C23.2365 22 23.847 21.7447 24.2971 21.2903C24.7471 20.8359 25 20.2196 25 19.5769V7.46154H5.8V19.5769C5.8 20.2196 5.54714 20.8359 5.09706 21.2903C4.64697 21.7447 4.03652 22 3.4 22ZM3.4 22C2.76348 22 2.15303 21.7447 1.70294 21.2903C1.25286 20.8359 1 20.2196 1 19.5769V2.61538C1 2.18696 1.16857 1.77608 1.46863 1.47314C1.76869 1.17019 2.17565 1 2.6 1H9C9.42435 1 9.83131 1.17019 10.1314 1.47314C10.4314 1.77608 10.6 2.18696 10.6 2.61538V3.42308C10.6 3.63729 10.6843 3.84273 10.8343 3.9942C10.9843 4.14567 11.1878 4.23077 11.4 4.23077H21.8" stroke="black" stroke-width="1.5" stroke-linecap="round" stroke-linejoin="round"/>
</svg>
