<svg width="25" height="25" viewBox="0 0 25 25" fill="none" xmlns="http://www.w3.org/2000/svg">
<path d="M9.08008 14.6013C9.08008 15.3849 9.39138 16.1365 9.94551 16.6906C10.4996 17.2447 11.2512 17.556 12.0348 17.556C12.8185 17.556 13.5701 17.2447 14.1242 16.6906C14.6783 16.1365 14.9896 15.3849 14.9896 14.6013C14.9896 13.8176 14.6783 13.066 14.1242 12.5119C13.5701 11.9578 12.8185 11.6465 12.0348 11.6465C11.2512 11.6465 10.4996 11.9578 9.94551 12.5119C9.39138 13.066 9.08008 13.8176 9.08008 14.6013Z" stroke="#0D1D38" stroke-width="1.5" stroke-linecap="round" stroke-linejoin="round"/>
<path d="M16.4666 23.8363C16.449 22.6724 15.9743 21.5622 15.145 20.7454C14.3157 19.9285 13.1984 19.4707 12.0344 19.4707C10.8705 19.4707 9.75317 19.9285 8.9239 20.7454C8.09462 21.5622 7.61991 22.6724 7.60229 23.8363" stroke="#0D1D38" stroke-width="1.5" stroke-linecap="round" stroke-linejoin="round"/>
<path d="M17.7595 16.6233C17.7595 17.2159 17.995 17.7843 18.414 18.2034C18.8331 18.6225 19.4015 18.8579 19.9941 18.8579C20.5868 18.8579 21.1552 18.6225 21.5742 18.2034C21.9933 17.7843 22.2287 17.2159 22.2287 16.6233C22.2287 16.0306 21.9933 15.4622 21.5742 15.0432C21.1552 14.6241 20.5868 14.3887 19.9941 14.3887C19.4015 14.3887 18.8331 14.6241 18.414 15.0432C17.995 15.4622 17.7595 16.0306 17.7595 16.6233Z" stroke="#0D1D38" stroke-width="1.5" stroke-linecap="round" stroke-linejoin="round"/>
<path d="M23.3461 23.3273C23.3455 22.7206 23.1803 22.1254 22.868 21.6053C22.5558 21.0851 22.1082 20.6594 21.5731 20.3737C21.0379 20.0879 20.4352 19.9527 19.8293 19.9826C19.2233 20.0124 18.6368 20.2062 18.1323 20.5432" stroke="#0D1D38" stroke-width="1.5" stroke-linecap="round" stroke-linejoin="round"/>
<path d="M2.11743 16.6233C2.11743 16.9167 2.17523 17.2073 2.28753 17.4784C2.39983 17.7495 2.56443 17.9959 2.77193 18.2034C2.97944 18.4109 3.22578 18.5755 3.4969 18.6878C3.76801 18.8001 4.05859 18.8579 4.35204 18.8579C4.6455 18.8579 4.93608 18.8001 5.20719 18.6878C5.47831 18.5755 5.72465 18.4109 5.93216 18.2034C6.13966 17.9959 6.30426 17.7495 6.41656 17.4784C6.52886 17.2073 6.58666 16.9167 6.58666 16.6233C6.58666 16.3298 6.52886 16.0393 6.41656 15.7681C6.30426 15.497 6.13966 15.2507 5.93216 15.0432C5.72465 14.8357 5.47831 14.6711 5.20719 14.5588C4.93608 14.4465 4.6455 14.3887 4.35204 14.3887C4.05859 14.3887 3.76801 14.4465 3.4969 14.5588C3.22578 14.6711 2.97944 14.8357 2.77193 15.0432C2.56443 15.2507 2.39983 15.497 2.28753 15.7681C2.17523 16.0393 2.11743 16.3298 2.11743 16.6233Z" stroke="#0D1D38" stroke-width="1.5" stroke-linecap="round" stroke-linejoin="round"/>
<path d="M1 23.3273C1.00057 22.7206 1.16579 22.1254 1.47804 21.6053C1.79029 21.0851 2.23786 20.6594 2.77302 20.3737C3.30818 20.0879 3.91088 19.9527 4.51683 19.9826C5.12278 20.0124 5.70927 20.2062 6.21376 20.5432" stroke="#0D1D38" stroke-width="1.5" stroke-linecap="round" stroke-linejoin="round"/>
<path d="M12.4261 1.309L13.5332 3.69496H15.6866C15.7952 3.69076 15.9024 3.72016 15.9937 3.77916C16.085 3.83816 16.1558 3.92388 16.1966 4.02463C16.2374 4.12538 16.2461 4.23626 16.2215 4.34213C16.1969 4.44801 16.1403 4.54373 16.0593 4.61623L14.1894 6.45572L15.2254 8.83457C15.271 8.94353 15.2812 9.06406 15.2546 9.17914C15.228 9.29421 15.1659 9.39803 15.0772 9.47593C14.9884 9.55383 14.8774 9.60187 14.7598 9.61327C14.6422 9.62468 14.5241 9.59887 14.422 9.53949L11.9182 8.13168L9.41542 9.53949C9.31325 9.59856 9.19514 9.62413 9.07769 9.61262C8.96024 9.60111 8.84934 9.55309 8.76058 9.47531C8.67182 9.39754 8.60965 9.29391 8.58282 9.17898C8.55598 9.06406 8.56583 8.94361 8.61096 8.83457L9.64701 6.45572L7.77806 4.61623C7.69674 4.54414 7.63968 4.44868 7.6147 4.34292C7.58972 4.23716 7.59804 4.12626 7.63851 4.0254C7.67899 3.92455 7.74964 3.83867 7.84081 3.77951C7.93197 3.72036 8.03919 3.69083 8.14779 3.69496H10.3022L11.4103 1.309C11.4585 1.21589 11.5314 1.13782 11.6209 1.08332C11.7105 1.02882 11.8133 1 11.9182 1C12.023 1 12.1259 1.02882 12.2154 1.08332C12.305 1.13782 12.3779 1.21589 12.4261 1.309Z" stroke="#04AFF6" stroke-width="1.5" stroke-linecap="round" stroke-linejoin="round"/>
</svg>
