<svg width="24" height="24" viewBox="0 0 24 24" fill="none" xmlns="http://www.w3.org/2000/svg">
<path d="M11.3039 7.88718C10.1173 7.88718 9.15527 6.92519 9.15527 5.73851C9.15527 4.55184 10.1173 3.58984 11.3039 3.58984C12.4906 3.58984 13.4526 4.55184 13.4526 5.73851C13.4526 6.92519 12.4906 7.88718 11.3039 7.88718Z" stroke="#04AFF6" stroke-width="1.56" stroke-miterlimit="10" stroke-linecap="round" stroke-linejoin="round"/>
<path d="M7.98315 12.2816C7.98315 10.426 9.44815 8.96094 11.3039 8.96094C13.1595 8.96094 14.6245 10.426 14.6245 12.2816" stroke="#04AFF6" stroke-width="1.56" stroke-miterlimit="10" stroke-linecap="round" stroke-linejoin="round"/>
<path d="M18.0918 16.3342C18.0918 16.3342 17.6035 14.9668 13.8922 14.7715C13.5015 14.7715 13.2085 14.9668 13.2085 15.2598V20.9245C13.2085 21.2175 13.5015 21.4128 13.7945 21.4128C17.6035 21.5105 18.0918 22.9755 18.0918 22.9755M18.0918 16.3342V22.9755M18.0918 16.3342C18.0918 16.3342 18.5802 14.9668 22.2915 14.7715C22.6822 14.7715 22.9752 14.9668 22.9752 15.2598V20.9245C22.9752 21.2175 22.6822 21.4128 22.3892 21.4128C18.5802 21.5105 18.0918 22.9755 18.0918 22.9755" stroke="#0D1D38" stroke-width="1.5" stroke-miterlimit="10" stroke-linecap="round" stroke-linejoin="round"/>
<path d="M21.1193 12.134V2.36733C21.1193 1.586 20.5333 1 19.752 1H2.36733C1.586 1 1 1.586 1 2.36733V15.7477C1 16.529 1.586 17.115 2.36733 17.115H9.9853" stroke="#0D1D38" stroke-width="1.5" stroke-miterlimit="10" stroke-linecap="round" stroke-linejoin="round"/>
<path d="M8.71564 17.1152L8.03198 21.0219" stroke="#0D1D38" stroke-width="1.5" stroke-miterlimit="10" stroke-linecap="round" stroke-linejoin="round"/>
<path d="M9.74122 21.0215H7.05542" stroke="#0D1D38" stroke-width="1.5" stroke-miterlimit="10" stroke-linecap="round" stroke-linejoin="round"/>
</svg>
