<svg width="18" height="24" viewBox="0 0 18 24" fill="none" xmlns="http://www.w3.org/2000/svg">
<path d="M5.76221 3.56375C5.76221 4.2437 6.03232 4.8958 6.51311 5.3766C6.99391 5.85739 7.64601 6.1275 8.32596 6.1275C9.00591 6.1275 9.65801 5.85739 10.1388 5.3766C10.6196 4.8958 10.8897 4.2437 10.8897 3.56375C10.8897 2.8838 10.6196 2.2317 10.1388 1.75091C9.65801 1.27011 9.00591 1 8.32596 1C7.64601 1 6.99391 1.27011 6.51311 1.75091C6.03232 2.2317 5.76221 2.8838 5.76221 3.56375Z" stroke="#0D1D38" stroke-width="1.56" stroke-linecap="round" stroke-linejoin="round"/>
<path d="M14.3402 21.7993L12.547 18.214H8.32584C7.9373 18.214 7.56467 18.0596 7.28993 17.7849C7.01519 17.5102 6.86084 17.1375 6.86084 16.749V9.42398C6.86084 9.03544 7.01519 8.66281 7.28993 8.38807C7.56467 8.11333 7.9373 7.95898 8.32584 7.95898C8.71438 7.95898 9.08701 8.11333 9.36175 8.38807C9.63649 8.66281 9.79084 9.03544 9.79084 9.42398V15.284H13.4533C13.7254 15.2839 13.9922 15.3596 14.2237 15.5026C14.4552 15.6456 14.6423 15.8503 14.764 16.0936L16.9615 20.4886C17.1353 20.8363 17.1639 21.2387 17.041 21.6074C16.9181 21.9761 16.6538 22.2809 16.3062 22.4547C15.9586 22.6285 15.5561 22.6571 15.1874 22.5342C14.8187 22.4113 14.514 22.1469 14.3402 21.7993Z" stroke="#0D1D38" stroke-width="1.56" stroke-linecap="round" stroke-linejoin="round"/>
<path d="M9.79073 21.8233C8.44456 22.6004 6.84483 22.8109 5.34347 22.4085C3.8421 22.0061 2.56208 21.0238 1.785 19.6776C1.00791 18.3314 0.797417 16.7317 1.19982 15.2303C1.60222 13.729 2.58456 12.449 3.93073 11.6719" stroke="#04AFF6" stroke-width="1.56" stroke-linecap="round" stroke-linejoin="round"/>
</svg>
