<svg width="178" height="129" viewBox="0 0 178 129" fill="none" xmlns="http://www.w3.org/2000/svg">
<path d="M108.565 28.1189L88.8406 4.69141L61.1936 37.5289" fill="white"/>
<path d="M108.565 28.1189L88.8406 4.69141L61.1936 37.5289" stroke="black" stroke-linecap="round" stroke-linejoin="round"/>
<path d="M141.839 67.6413L120.855 42.7168Z" fill="white"/>
<path d="M141.839 67.6413L120.855 42.7168" stroke="black" stroke-linecap="round" stroke-linejoin="round"/>
<path d="M130.193 104.926H173.23L151.684 79.334" fill="white"/>
<path d="M130.193 104.926H173.23L151.684 79.334" stroke="black" stroke-linecap="round" stroke-linejoin="round"/>
<path d="M60.4763 38.3809L4.44995 104.926H113.573" fill="white"/>
<path d="M60.4763 38.3809L4.44995 104.926H113.573" stroke="black" stroke-linecap="round" stroke-linejoin="round"/>
<path d="M134.289 121.158L129.086 109.438C127.709 110.399 126.154 111.077 124.513 111.431L129.73 123.179C129.93 123.63 130.26 124.011 130.677 124.275C131.094 124.539 131.579 124.673 132.072 124.661C132.482 124.65 132.884 124.539 133.24 124.336C133.597 124.134 133.898 123.847 134.117 123.5C134.337 123.153 134.467 122.758 134.497 122.349C134.527 121.939 134.456 121.529 134.289 121.154V121.158Z" fill="#04AFF6"/>
<path d="M134.289 121.158L129.086 109.438C127.709 110.399 126.154 111.077 124.513 111.431L129.73 123.179C129.93 123.63 130.26 124.011 130.677 124.275C131.094 124.539 131.579 124.673 132.072 124.661C132.482 124.65 132.884 124.539 133.24 124.336C133.597 124.134 133.898 123.847 134.117 123.5C134.337 123.153 134.467 122.758 134.497 122.349C134.527 121.939 134.456 121.529 134.289 121.154V121.158Z" stroke="black" stroke-linecap="round" stroke-linejoin="round"/>
<path d="M116.795 87.7028C115.289 88.3714 113.93 89.3299 112.795 90.5237C111.661 91.7175 110.772 93.1231 110.18 94.6603C109.589 96.1976 109.305 97.8363 109.347 99.4829C109.389 101.13 109.754 102.752 110.423 104.257C111.091 105.763 112.05 107.122 113.244 108.256C114.437 109.391 115.843 110.28 117.38 110.872C118.918 111.463 120.556 111.747 122.203 111.705C123.85 111.663 125.472 111.298 126.977 110.629C130.017 109.279 132.397 106.776 133.592 103.672C134.787 100.567 134.699 97.115 133.349 94.0748C131.999 91.0345 129.496 88.6552 126.392 87.4602C123.287 86.2653 119.835 86.3525 116.795 87.7028ZM125.986 108.406C123.692 109.422 121.103 109.549 118.721 108.762C116.34 107.976 114.335 106.332 113.098 104.15C111.86 101.968 111.478 99.4044 112.025 96.9565C112.572 94.5086 114.009 92.3515 116.058 90.9041C117.692 89.752 119.631 89.1102 121.629 89.0596C123.628 89.0091 125.597 89.5522 127.287 90.6202C128.55 91.4193 129.621 92.4886 130.422 93.7512C131.222 95.0138 131.733 96.4382 131.917 97.9218C132.101 99.4054 131.953 100.911 131.485 102.331C131.017 103.751 130.24 105.049 129.21 106.133C128.295 107.095 127.2 107.868 125.986 108.406Z" fill="#F1F7FF"/>
<path d="M133.349 94.0753C132.342 91.8085 130.685 89.8911 128.589 88.5653C127.021 87.5753 125.254 86.945 123.413 86.7198C121.573 86.4946 119.705 86.6802 117.945 87.2631C116.185 87.846 114.576 88.8118 113.233 90.0909C111.891 91.3701 110.849 92.9308 110.182 94.6609C109.291 96.9757 109.106 99.503 109.651 101.923C110.196 104.343 111.447 106.547 113.244 108.256C115.348 110.254 118.079 111.462 120.972 111.672C123.866 111.883 126.743 111.085 129.114 109.413C131.484 107.74 133.202 105.298 133.974 102.501C134.747 99.7049 134.525 96.7271 133.349 94.0753Z" stroke="black" stroke-linecap="round" stroke-linejoin="round"/>
<path d="M125.986 108.406C123.692 109.422 121.103 109.549 118.721 108.762C116.34 107.976 114.335 106.332 113.098 104.15C111.86 101.969 111.478 99.4047 112.025 96.9568C112.572 94.5089 114.009 92.3517 116.058 90.9044C117.692 89.7523 119.631 89.1104 121.629 89.0599C123.628 89.0093 125.597 89.5524 127.287 90.6205C128.55 91.4196 129.621 92.4889 130.421 93.7515C131.222 95.014 131.733 96.4384 131.917 97.922C132.101 99.4057 131.953 100.912 131.485 102.331C131.017 103.751 130.24 105.05 129.21 106.133C128.295 107.095 127.199 107.868 125.986 108.406Z" stroke="black" stroke-linecap="round" stroke-linejoin="round"/>
<path d="M50.957 109.744L57.1399 115.926" stroke="black" stroke-linecap="round" stroke-linejoin="round"/>
<path d="M50.957 115.926L57.1399 109.744" stroke="black" stroke-linecap="round" stroke-linejoin="round"/>
<path d="M57.2136 10.0918H65.957" stroke="black" stroke-linecap="round" stroke-linejoin="round"/>
<path d="M61.5854 14.4632V5.7207" stroke="black" stroke-linecap="round" stroke-linejoin="round"/>
<path d="M45.9863 5.7207H50.7558" stroke="black" stroke-linecap="round" stroke-linejoin="round"/>
<path d="M48.3706 8.10438V3.33398" stroke="black" stroke-linecap="round" stroke-linejoin="round"/>
<path d="M125.754 19.2871L107.82 21.2273L109.974 41.1491L127.907 39.2098L125.754 19.2871Z" fill="#F1F7FF"/>
<path d="M122.749 16.8693L110.239 18.2213C109.52 18.299 108.861 18.6592 108.407 19.2226C107.954 19.7861 107.742 20.5067 107.82 21.2259L109.973 41.1477C110.011 41.5038 110.119 41.8489 110.291 42.1633C110.463 42.4776 110.695 42.755 110.974 42.9797C111.253 43.2043 111.574 43.3718 111.917 43.4725C112.261 43.5732 112.621 43.6052 112.977 43.5667L125.487 42.2148C126.207 42.137 126.865 41.7768 127.319 41.2134C127.773 40.6499 127.984 39.9293 127.906 39.2101L125.754 19.2884C125.716 18.9322 125.608 18.5871 125.436 18.2727C125.264 17.9584 125.032 17.681 124.753 17.4563C124.474 17.2317 124.153 17.0642 123.809 16.9635C123.465 16.8628 123.105 16.8308 122.749 16.8693Z" stroke="black" stroke-linecap="round" stroke-linejoin="round"/>
<path d="M127.908 39.2109L109.973 41.1485" stroke="black" stroke-linecap="round" stroke-linejoin="round"/>
<path d="M107.82 21.2266L125.754 19.2891" stroke="black" stroke-linecap="round" stroke-linejoin="round"/>
<path d="M117.979 41.6536L120.193 41.416" stroke="black" stroke-linecap="round" stroke-linejoin="round"/>
<path d="M150.993 50.1728L148.994 49.3887L139.177 74.4306L157.674 81.6814L158.458 79.6816" stroke="black" stroke-linecap="round" stroke-linejoin="round"/>
<path d="M154.13 49.0959L151.777 48.1738L141.96 73.2158L160.457 80.4666L161.379 78.1134" stroke="black" stroke-linecap="round" stroke-linejoin="round"/>
<path d="M155.052 46.7422L145.236 71.7841L163.732 79.0358L173.549 53.993L155.052 46.7422Z" stroke="black" stroke-linecap="round" stroke-linejoin="round"/>
<path d="M157.373 55.2383L166.254 58.72" stroke="black" stroke-linecap="round" stroke-linejoin="round"/>
<path d="M156.269 58.0605L165.15 61.5404" stroke="black" stroke-linecap="round" stroke-linejoin="round"/>
<path d="M155.252 60.6504L164.133 64.1312" stroke="black" stroke-linecap="round" stroke-linejoin="round"/>
<path d="M154.255 63.1992L163.136 66.6809" stroke="black" stroke-linecap="round" stroke-linejoin="round"/>
<path d="M43.4649 79.9512H9.08691V60.3223H43.4649V75.7228L50.2209 77.0819L43.4649 79.9512Z" fill="#F1F7FF"/>
<path d="M43.4649 79.9512H9.08691V60.3223H43.4649V75.7228L50.2209 77.0819L43.4649 79.9512Z" stroke="black" stroke-linecap="round" stroke-linejoin="round"/>
<path d="M18.228 66.748H34.224" stroke="black" stroke-linecap="round" stroke-linejoin="round"/>
<path d="M18.228 70.1309H34.224" stroke="black" stroke-linecap="round" stroke-linejoin="round"/>
<path d="M18.228 73.5254H34.224" stroke="black" stroke-linecap="round" stroke-linejoin="round"/>
<path d="M55.2797 36.8521H27.8704V19.9688H57.4388V33.2146L62.4371 38.9569L55.2797 36.8521Z" stroke="black" stroke-linecap="round" stroke-linejoin="round"/>
<path d="M40.7788 25.9966C40.6987 25.0594 41.449 24.3857 42.5481 24.3946C42.8436 24.4184 43.1279 24.5183 43.3733 24.6846C43.6187 24.8509 43.8169 25.0779 43.9486 25.3435C44.0802 25.6091 44.1408 25.9043 44.1245 26.2003C44.1082 26.4963 44.0155 26.783 43.8555 27.0326C43.4995 27.6209 42.8347 27.9528 42.4137 28.4957C41.9928 29.0386 42.3808 30.1992 42.3808 30.1992" stroke="black" stroke-linecap="round" stroke-linejoin="round"/>
<path d="M42.4546 32.7045V31.8848" stroke="black" stroke-linecap="round" stroke-linejoin="round"/>
<path d="M74.6426 86.1855C72.5493 92.2437 71.2212 98.5397 70.6892 104.927H102.945C102.236 98.5353 100.793 92.2465 98.6423 86.1855H74.6426Z" fill="#04AFF6"/>
<path d="M74.6426 86.1855C72.5493 92.2437 71.2212 98.5397 70.6892 104.927H102.945C102.236 98.5353 100.793 92.2465 98.6423 86.1855H74.6426Z" stroke="black" stroke-linecap="round" stroke-linejoin="round"/>
<path d="M75.8325 82.716C75.4053 83.9112 75.0191 85.0398 74.6631 86.1247H98.6246C98.2516 84.9979 97.8556 83.8205 97.4302 82.5469" stroke="black" stroke-linecap="round" stroke-linejoin="round"/>
<path d="M100.904 53.6831C98.2338 48.8771 94.8081 48.5789 90.7097 46.127H86.0879C81.0007 48.0289 73.9412 49.9246 70.844 52.6533C67.8287 55.31 66.127 61.1528 65.326 65.0902C63.303 62.0499 61.7206 57.4842 60.0002 53.5202L51.2097 58.5932C52.4379 64.3915 57.8402 89.6462 73.2283 77.9222C73.9163 79.1077 74.9674 80.9429 75.8342 82.7175L89.0365 82.5653C92.5725 83.4331 97.4675 83.482 100.186 81.0247C104.074 77.511 104.769 60.6518 100.904 53.6831Z" stroke="black" stroke-linecap="round" stroke-linejoin="round"/>
<path d="M73.2267 57.1777C72.35 59.7712 67.957 64.2853 69.8865 68.4727" stroke="black" stroke-linecap="round" stroke-linejoin="round"/>
<path d="M76.7431 72.3778C77.2379 69.6188 78.2472 67.4908 78.9974 67.6252C79.7477 67.7596 79.9551 70.1056 79.4602 72.8646C78.9654 75.6236 77.9561 77.7507 77.2059 77.6163C76.4556 77.4819 76.2482 75.1368 76.7431 72.3778Z" fill="#04AFF6"/>
<path d="M76.7431 72.3778C77.2379 69.6188 78.2472 67.4908 78.9974 67.6252C79.7477 67.7596 79.9551 70.1056 79.4602 72.8646C78.9654 75.6236 77.9561 77.7507 77.2059 77.6163C76.4556 77.4819 76.2482 75.1368 76.7431 72.3778Z" stroke="black" stroke-linecap="round" stroke-linejoin="round"/>
<path d="M66.3665 69.0513C63.5274 70.332 62.0251 72.978 60.8743 74.297C59.7752 75.5563 59.0943 77.242 60.238 77.1388C59.7164 77.954 59.6301 78.5538 60.0368 78.8769C60.1436 78.9597 60.2753 79.0024 60.4097 78.998C59.849 79.8274 60.391 80.4148 61.0808 80.592C60.9692 80.7441 60.9067 80.9268 60.9019 81.1155C60.897 81.3041 60.9499 81.4898 61.0535 81.6475C61.1571 81.8053 61.3065 81.9276 61.4816 81.998C61.6566 82.0685 61.8491 82.0837 62.0331 82.0418C62.9845 81.7187 65.8806 79.0336 66.8952 78.3625C69.6906 76.514 74.7405 76.659 78.0584 76.9892C79.1347 74.9368 79.7061 72.6574 79.7254 70.34C76.3096 69.2525 69.6319 67.5793 66.3665 69.0513Z" fill="#F1F7FF"/>
<path d="M66.3665 69.0513C63.5274 70.332 62.0251 72.978 60.8743 74.297C59.7752 75.5563 59.0943 77.242 60.238 77.1388C59.7164 77.954 59.6301 78.5538 60.0368 78.8769C60.1436 78.9597 60.2753 79.0024 60.4097 78.998C59.849 79.8274 60.391 80.4148 61.0808 80.592C60.9692 80.7441 60.9067 80.9268 60.9019 81.1155C60.897 81.3041 60.9499 81.4898 61.0535 81.6475C61.1571 81.8053 61.3065 81.9276 61.4816 81.998C61.6566 82.0685 61.8491 82.0837 62.0331 82.0418C62.9845 81.7187 65.8806 79.0336 66.8952 78.3625C69.6906 76.514 74.7405 76.659 78.0584 76.9892C79.1347 74.9368 79.7061 72.6574 79.7254 70.34C76.3096 69.2525 69.6319 67.5793 66.3665 69.0513Z" stroke="black" stroke-linecap="round" stroke-linejoin="round"/>
<path d="M66.6611 75.0938C65.319 75.4943 62.1568 79.331 61.0781 80.5913" stroke="black" stroke-linecap="round" stroke-linejoin="round"/>
<path d="M65.9935 73.5C64.6514 73.9005 61.4937 77.7337 60.4097 78.9975" stroke="black" stroke-linecap="round" stroke-linejoin="round"/>
<path d="M65.287 72.1152C64.1487 72.4543 62.0341 75.0344 60.238 77.1375" stroke="black" stroke-linecap="round" stroke-linejoin="round"/>
<path d="M77.2058 77.6172C81.0426 79.4808 84.9399 81.5937 89.0348 82.5656" stroke="black" stroke-linecap="round" stroke-linejoin="round"/>
<path d="M78.9973 67.6248C85.5931 68.2611 87.908 69.6246 93.4215 71.0531C93.4203 67.121 93.1825 63.1926 92.7095 59.2891" stroke="black" stroke-linecap="round" stroke-linejoin="round"/>
<path d="M54.913 54.8584C57.341 53.4567 59.6176 52.8559 59.9985 53.5163C60.3794 54.1767 58.7213 55.8472 56.2934 57.249C53.8655 58.6507 51.5898 59.2515 51.208 58.592C50.8262 57.9325 52.486 56.2575 54.913 54.8584Z" fill="#04AFF6"/>
<path d="M54.913 54.8584C57.341 53.4567 59.6176 52.8559 59.9985 53.5163C60.3794 54.1767 58.7213 55.8472 56.2934 57.249C53.8655 58.6507 51.5898 59.2515 51.208 58.592C50.8262 57.9325 52.486 56.2575 54.913 54.8584Z" stroke="black" stroke-linecap="round" stroke-linejoin="round"/>
<path d="M56.1252 45.8892C56.8257 43.9214 56.451 41.2781 55.9116 39.0362C55.747 38.35 54.3986 38.2966 54.2206 38.9694C53.6279 41.5131 54.4111 42.3158 53.4535 44.0424C51.2169 45.1701 48.7018 44.2133 46.4607 43.0928C45.0902 42.3786 43.6609 41.7831 42.1887 41.3128C41.0024 40.9568 40.0696 42.1734 41.0139 42.8392C42.0392 43.5618 42.8375 43.9606 43.991 44.6601C42.6272 44.2464 41.2391 43.9174 39.8347 43.6749C38.4997 43.4328 37.6177 44.823 38.7355 45.43C38.5565 45.4678 38.3923 45.5567 38.2628 45.686C38.1333 45.8153 38.044 45.9794 38.0059 46.1583C37.9677 46.3373 37.9823 46.5235 38.0478 46.6944C38.1134 46.8652 38.227 47.0134 38.3751 47.121C38.8637 47.396 39.363 47.6487 39.8738 47.8792C38.8503 47.7662 38.1828 48.8476 39.0648 49.3264C41.8941 50.859 47.6658 52.6977 50.5788 53.7924C50.9134 53.9188 51.8248 57.3871 52.244 58.8387C54.7538 58.2718 57.0722 57.0587 58.9706 55.3214C58.6377 54.4047 55.8031 46.8041 56.1252 45.8892ZM39.8801 47.8775C41.1519 48.278 42.4655 48.7853 45.7381 49.7634C44.2179 49.3068 39.8801 47.8775 39.8801 47.8775Z" fill="#F1F7FF"/>
<path d="M38.7418 45.4308L46.1341 47.5535M39.8801 47.8775C41.1519 48.278 42.4655 48.7853 45.7381 49.7634M56.1252 45.8892C56.8257 43.9214 56.451 41.2781 55.9116 39.0362C55.747 38.35 54.3986 38.2966 54.2206 38.9694C53.6279 41.5131 54.4111 42.3158 53.4535 44.0424C51.2169 45.1701 48.7018 44.2133 46.4607 43.0928C45.0902 42.3786 43.6609 41.7831 42.1887 41.3128C41.0024 40.9568 40.0696 42.1734 41.0139 42.8392C42.0392 43.5618 42.8375 43.9606 43.991 44.6601C42.6272 44.2464 41.2391 43.9174 39.8347 43.6749C38.4997 43.4328 37.6177 44.823 38.7355 45.43C38.5565 45.4678 38.3923 45.5567 38.2628 45.686C38.1333 45.8153 38.044 45.9794 38.0059 46.1583C37.9677 46.3373 37.9823 46.5235 38.0478 46.6944C38.1134 46.8652 38.227 47.0134 38.3751 47.121C38.8637 47.396 39.363 47.6487 39.8738 47.8792C38.8503 47.7662 38.1828 48.8476 39.0648 49.3264C41.8941 50.859 47.6658 52.6977 50.5788 53.7924C50.9134 53.9188 51.8248 57.3871 52.244 58.8387C54.7538 58.2718 57.0722 57.0587 58.9706 55.3214C58.6377 54.4047 55.8031 46.8041 56.1252 45.8892Z" stroke="black" stroke-linecap="round" stroke-linejoin="round"/>
<path d="M43.9973 44.6602L46.856 45.4291" stroke="black" stroke-linecap="round" stroke-linejoin="round"/>
<path d="M97.5511 27.6888C97.2761 27.2157 96.9105 26.8016 96.4753 26.47C96.04 26.1385 95.5436 25.896 95.0145 25.7566C94.4855 25.6171 93.9341 25.5834 93.3919 25.6573C92.8498 25.7312 92.3275 25.9113 91.8551 26.1873C89.8695 27.3443 90.3555 31.8833 90.3555 31.8833C90.3555 31.8833 94.0623 34.5418 96.0515 33.3848C96.5243 33.1096 96.9383 32.7439 97.2697 32.3086C97.6011 31.8733 97.8433 31.3769 97.9826 30.8478C98.1219 30.3187 98.1555 29.7674 98.0815 29.2253C98.0074 28.6832 97.8272 28.1611 97.5511 27.6888Z" fill="#04AFF6"/>
<path d="M97.5511 27.6888C97.2761 27.2157 96.9105 26.8016 96.4753 26.47C96.04 26.1385 95.5436 25.896 95.0145 25.7566C94.4855 25.6171 93.9341 25.5834 93.3919 25.6573C92.8498 25.7312 92.3275 25.9113 91.8551 26.1873C89.8695 27.3443 90.3555 31.8833 90.3555 31.8833C90.3555 31.8833 94.0623 34.5418 96.0515 33.3848C96.5243 33.1096 96.9383 32.7439 97.2697 32.3086C97.6011 31.8733 97.8433 31.3769 97.9826 30.8478C98.1219 30.3187 98.1555 29.7674 98.0815 29.2253C98.0074 28.6832 97.8272 28.1611 97.5511 27.6888Z" stroke="black" stroke-linecap="round" stroke-linejoin="round"/>
<path d="M82.3401 34.996C82.3401 38.5062 84.1708 40.7143 87.6801 40.7143C89.1631 40.7341 90.6064 40.2346 91.7599 39.3022C92.9133 38.3699 93.7043 37.0634 93.9958 35.6092C94.2873 34.1549 94.061 32.6445 93.356 31.3397C92.6509 30.0348 91.5117 29.0176 90.1356 28.4643C89.3557 28.1494 88.5211 27.9924 87.6801 28.0024C84.1699 28.0024 82.3401 31.4859 82.3401 34.996Z" fill="#04AFF6"/>
<path d="M82.3401 34.996C82.3401 38.5062 84.1708 40.7143 87.6801 40.7143C89.1631 40.7341 90.6064 40.2346 91.7599 39.3022C92.9133 38.3699 93.7043 37.0634 93.9958 35.6092C94.2873 34.1549 94.061 32.6445 93.356 31.3397C92.6509 30.0348 91.5117 29.0176 90.1356 28.4643C89.3557 28.1494 88.5211 27.9924 87.6801 28.0024C84.1699 28.0024 82.3401 31.4859 82.3401 34.996Z" stroke="black" stroke-linecap="round" stroke-linejoin="round"/>
<path d="M91.7707 33.056C91.3542 32.5105 90.1029 33.1824 89.4923 33.7289C89.4425 31.8456 88.5133 30.2997 87.0982 29.9989C85.3182 29.6224 83.4492 31.3463 82.9215 33.8499C82.706 34.64 82.6899 35.4711 82.8748 36.2689C83.0596 37.0667 83.4396 37.8062 83.9806 38.4209L83.1965 47.1518C83.1965 47.1518 83.4581 48.9461 86.0151 48.9461C90.7446 48.9461 91.8001 46.7442 91.8001 46.7442C91.1424 43.841 90.2105 39.5717 89.3152 35.54C90.919 35.322 92.1917 33.6078 91.7707 33.056Z" fill="#F1F7FF"/>
<path d="M91.7707 33.056C91.3542 32.5105 90.1029 33.1824 89.4923 33.7289C89.4425 31.8456 88.5133 30.2997 87.0982 29.9989C85.3182 29.6224 83.4492 31.3463 82.9215 33.8499C82.706 34.64 82.6899 35.4711 82.8748 36.2689C83.0596 37.0667 83.4396 37.8062 83.9806 38.4209L83.1965 47.1518C83.1965 47.1518 83.4581 48.9461 86.0151 48.9461C90.7446 48.9461 91.8001 46.7442 91.8001 46.7442C91.1424 43.841 90.2105 39.5717 89.3152 35.54C90.919 35.322 92.1917 33.6078 91.7707 33.056Z" stroke="black" stroke-linecap="round" stroke-linejoin="round"/>
<path d="M87.7622 37.875C87.0181 39.477 85.3307 40.5112 83.8284 39.8775L83.9797 38.4197C84.558 38.8362 85.2754 39.0122 85.9808 38.9106C86.6863 38.809 87.3249 38.4378 87.7622 37.875Z" fill="#04AFF6"/>
<path d="M87.7622 37.875C87.0181 39.477 85.3307 40.5112 83.8284 39.8775L83.9797 38.4197C84.558 38.8362 85.2754 39.0122 85.9808 38.9106C86.6863 38.809 87.3249 38.4378 87.7622 37.875Z" stroke="black" stroke-linecap="round" stroke-linejoin="round"/>
<path d="M83.2418 38.168C83.2418 40.9804 81.4022 43.2605 79.1336 43.2605C76.8649 43.2605 75.0271 40.9804 75.0271 38.168" stroke="black" stroke-linecap="round" stroke-linejoin="round"/>
<path d="M75.0271 33.6953C75.6203 33.6953 76.1891 33.931 76.6086 34.3504C77.028 34.7698 77.2637 35.3387 77.2637 35.9319C77.2637 36.5251 77.028 37.0939 76.6086 37.5134C76.1891 37.9328 75.6203 38.1685 75.0271 38.1685C74.4339 38.1685 73.865 37.9328 73.4456 37.5134C73.0262 37.0939 72.7905 36.5251 72.7905 35.9319C72.7905 35.3387 73.0262 34.7698 73.4456 34.3504C73.865 33.931 74.4339 33.6953 75.0271 33.6953Z" fill="#04AFF6"/>
<path d="M75.0271 33.6953C75.6203 33.6953 76.1891 33.931 76.6086 34.3504C77.028 34.7698 77.2637 35.3387 77.2637 35.9319C77.2637 36.5251 77.028 37.0939 76.6086 37.5134C76.1891 37.9328 75.6203 38.1685 75.0271 38.1685C74.4339 38.1685 73.865 37.9328 73.4456 37.5134C73.0262 37.0939 72.7905 36.5251 72.7905 35.9319C72.7905 35.3387 73.0262 34.7698 73.4456 34.3504C73.865 33.931 74.4339 33.6953 75.0271 33.6953Z" stroke="black" stroke-linecap="round" stroke-linejoin="round"/>
</svg>
