<svg width="24" height="19" viewBox="0 0 24 19" fill="none" xmlns="http://www.w3.org/2000/svg">
<path d="M10.549 17.9274L2.64852 10.7712C-2.35791 5.76474 5.00154 -3.84761 11.8604 3.92905V3.93095L9.11533 6.67626C8.52001 7.27163 8.51814 8.23633 9.11112 8.83395C9.60976 9.33654 10.3882 9.43108 10.9926 9.06239L13.5289 7.51502C14.2834 7.05475 15.2529 7.15839 15.893 7.76772L18.5115 10.2602C19.3341 11.0433 19.3178 12.3603 18.476 13.1228L13.1717 17.9274C12.4274 18.6016 11.2933 18.6016 10.549 17.9274Z" stroke="#04AFF6" stroke-linecap="round" stroke-linejoin="round"/>
<path d="M14.0479 11.1328L17.2746 14.2042" stroke="#04AFF6" stroke-linecap="round" stroke-linejoin="round"/>
<path d="M11.3159 13.6211L14.5425 16.6924" stroke="#04AFF6" stroke-linecap="round" stroke-linejoin="round"/>
<path d="M18.0128 13.5444L21.0758 10.7717C26.0489 5.79867 18.7227 -3.84706 11.864 3.9296L11.8629 3.93061L9.11581 6.67712C8.5204 7.27238 8.51845 8.23704 9.11142 8.83476C9.60998 9.33725 10.3883 9.43169 10.9927 9.063L13.5341 7.51263C14.2893 7.05189 15.2599 7.15627 15.8999 7.76706L18.513 10.2608C19.3357 11.0439 19.3193 12.3609 18.4777 13.1234L18.0128 13.5444Z" stroke="#04AFF6" stroke-linecap="round" stroke-linejoin="round"/>
</svg>
