<svg width="23" height="23" viewBox="0 0 23 23" fill="none" xmlns="http://www.w3.org/2000/svg">
<path d="M21.0229 4.90672V0.511719H16.6279" stroke="#04AFF6" stroke-linecap="round" stroke-linejoin="round"/>
<path d="M21.0227 0.511719L16.0905 5.44389C15.8099 5.7251 15.458 5.92459 15.0726 6.02095C14.6871 6.11731 14.2827 6.10689 13.9028 5.99082L8.32603 4.50629C7.95417 4.40576 7.56236 4.40521 7.19021 4.50467C6.81807 4.60414 6.47878 4.8001 6.20666 5.07275L0.512695 10.7667" stroke="#04AFF6" stroke-linecap="round" stroke-linejoin="round"/>
<path d="M0.512695 22.4863H22.4877" stroke="#04AFF6" stroke-linecap="round" stroke-linejoin="round"/>
<path d="M5.64004 16.1387H2.71004C2.51655 16.1412 2.33171 16.2192 2.19488 16.356C2.05805 16.4928 1.98007 16.6777 1.97754 16.8712V22.487H6.37254V16.8712C6.37001 16.6777 6.29202 16.4928 6.1552 16.356C6.01837 16.2192 5.83352 16.1412 5.64004 16.1387Z" stroke="#04AFF6" stroke-linecap="round" stroke-linejoin="round"/>
<path d="M12.9652 9.79102H10.0352C9.84175 9.79355 9.6569 9.87153 9.52008 10.0084C9.38325 10.1452 9.30526 10.33 9.30273 10.5235V22.4877H13.6977V10.5235C13.6952 10.33 13.6172 10.1452 13.4804 10.0084C13.3436 9.87153 13.1587 9.79355 12.9652 9.79102Z" stroke="#04AFF6" stroke-linecap="round" stroke-linejoin="round"/>
<path d="M20.2904 13.209H17.3604C17.1669 13.2115 16.9821 13.2895 16.8453 13.4263C16.7084 13.5632 16.6305 13.748 16.6279 13.9415V22.4873H21.0229V13.9415C21.0204 13.748 20.9424 13.5632 20.8056 13.4263C20.6688 13.2895 20.4839 13.2115 20.2904 13.209Z" stroke="#04AFF6" stroke-linecap="round" stroke-linejoin="round"/>
</svg>
