<svg width="24" height="22" viewBox="0 0 24 22" fill="none" xmlns="http://www.w3.org/2000/svg">
<path d="M18.6504 11.2578L19.8722 13.4573H22.2953C22.4278 13.4552 22.5578 13.4929 22.6687 13.5653C22.7797 13.6378 22.8664 13.7418 22.9177 13.8639C22.9691 13.986 22.9827 14.1207 22.9569 14.2507C22.9311 14.3806 22.867 14.4999 22.7729 14.5931L20.5481 17.0211L21.7806 19.8535C21.8345 19.9831 21.8464 20.1264 21.8146 20.2632C21.7829 20.4 21.7091 20.5234 21.6036 20.6161C21.498 20.7088 21.3662 20.7661 21.2264 20.7799C21.0867 20.7938 20.9461 20.7635 20.8244 20.6934L17.8446 19.0165L14.8658 20.6924C14.7441 20.7629 14.6034 20.7935 14.4635 20.7798C14.3235 20.7661 14.1914 20.7088 14.0857 20.6161C13.98 20.5233 13.906 20.3998 13.8743 20.2628C13.8425 20.1258 13.8546 19.9823 13.9087 19.8525L15.1002 17.1178" stroke="#04AFF6" stroke-linecap="round" stroke-linejoin="round"/>
<path d="M5.31924 11.2578L4.09743 13.4573H1.67432C1.54185 13.4552 1.4118 13.4929 1.30088 13.5653C1.18997 13.6378 1.10327 13.7418 1.05192 13.8639C1.00057 13.986 0.986915 14.1207 1.01272 14.2507C1.03853 14.3806 1.10261 14.4999 1.19673 14.5931L3.42157 17.0211L2.18902 19.8535C2.13514 19.9831 2.12324 20.1264 2.155 20.2632C2.18675 20.4 2.26057 20.5234 2.36607 20.6161C2.47157 20.7088 2.60346 20.7661 2.7432 20.7799C2.88295 20.7938 3.02352 20.7635 3.14518 20.6934L6.12499 19.0165L9.10382 20.6924C9.22549 20.7629 9.36621 20.7935 9.50617 20.7798C9.64612 20.7661 9.77826 20.7088 9.88395 20.6161C9.98965 20.5233 10.0636 20.3998 10.0953 20.2628C10.1271 20.1258 10.1151 19.9823 10.061 19.8525L8.86942 17.1178" stroke="#04AFF6" stroke-linecap="round" stroke-linejoin="round"/>
<path d="M12.344 1.26346L14.2866 5.14767L18.0243 5.52173C18.1134 5.53084 18.198 5.56501 18.2685 5.62027C18.3389 5.67552 18.3923 5.74961 18.4223 5.83394C18.4524 5.91827 18.4579 6.00939 18.4383 6.09674C18.4187 6.18409 18.3747 6.2641 18.3115 6.32748L15.233 9.40593L16.3738 13.589C16.3978 13.6771 16.3958 13.7703 16.368 13.8573C16.3402 13.9443 16.2878 14.0213 16.2172 14.0792C16.1465 14.137 16.0606 14.1732 15.9698 14.1833C15.8791 14.1933 15.7873 14.1769 15.7057 14.1359L11.9211 12.2441L8.13656 14.1359C8.05497 14.1766 7.96336 14.1928 7.87277 14.1826C7.78217 14.1724 7.69647 14.1362 7.62597 14.0784C7.55547 14.0206 7.50319 13.9437 7.47543 13.8568C7.44767 13.77 7.4456 13.677 7.46949 13.589L8.61024 9.40593L5.53179 6.32748C5.46827 6.26414 5.42404 6.18406 5.40425 6.09656C5.38446 6.00906 5.38992 5.91774 5.42 5.83323C5.45008 5.74871 5.50355 5.67448 5.57417 5.61916C5.64479 5.56384 5.72967 5.52972 5.81893 5.52075L9.55565 5.14669L11.4963 1.26346C11.5353 1.18438 11.5957 1.11779 11.6706 1.07123C11.7455 1.02467 11.832 1 11.9202 1C12.0084 1 12.0948 1.02467 12.1697 1.07123C12.2446 1.11779 12.305 1.18438 12.344 1.26346Z" stroke="#04AFF6" stroke-linecap="round" stroke-linejoin="round"/>
</svg>
