<svg width="46" height="46" viewBox="0 0 46 46" fill="none" xmlns="http://www.w3.org/2000/svg">
<path d="M16.6233 38.1052H5.88229C3.14821 38.1052 1 35.957 1 33.2229V8.42099C1 5.6869 3.14821 3.5387 5.88229 3.5387H13.694" stroke="#04AFF6" stroke-width="2" stroke-miterlimit="10" stroke-linecap="round"/>
<path d="M16.8186 30.6841H1" stroke="#04AFF6" stroke-width="2" stroke-miterlimit="10" stroke-linecap="round"/>
<path d="M23.9495 26.2944L21.8949 41.6207C21.5043 43.5736 24.0429 44.9407 25.4099 43.5736L31.2687 37.7149L37.1274 43.5736C38.6897 45.136 41.0334 43.7689 40.6429 41.6207L38.4011 26.2944" stroke="#04AFF6" stroke-width="2" stroke-miterlimit="10" stroke-linecap="round"/>
<path d="M31.27 28.3409C38.82 28.3409 44.9404 22.2203 44.9404 14.6704C44.9404 7.12046 38.82 1 31.27 1C23.72 1 17.5996 7.12046 17.5996 14.6704C17.5996 22.2203 23.72 28.3409 31.27 28.3409Z" stroke="#04AFF6" stroke-width="2" stroke-miterlimit="10" stroke-linecap="round"/>
<path d="M26.2183 20.112L29.9403 8.94586C30.1311 8.37342 30.6668 7.9873 31.2703 7.9873C31.8735 7.9873 32.4094 8.37342 32.6002 8.94586L36.3223 20.112M27.5654 16.0705H34.9749" stroke="#04AFF6" stroke-width="2" stroke-linecap="round"/>
</svg>
