<svg width="46" height="46" viewBox="0 0 46 46" fill="none" xmlns="http://www.w3.org/2000/svg">
<path d="M15.6469 33.2231H3.92938C3.15246 33.2231 2.40736 33.5318 1.85799 34.0811C1.30863 34.6305 1 35.3756 1 36.1525V44.9406H15.6469V33.2231Z" stroke="#04AFF6" stroke-width="2" stroke-linecap="round"/>
<path d="M42.011 33.2231H30.2935V44.9406H44.9403V36.1525C44.9403 35.3756 44.6317 34.6305 44.0823 34.0811C43.533 33.5318 42.7879 33.2231 42.011 33.2231Z" stroke="#04AFF6" stroke-width="2" stroke-linecap="round"/>
<path d="M27.3645 21.5057H18.5763C17.7994 21.5057 17.0543 21.8144 16.505 22.3637C15.9556 22.9131 15.647 23.6582 15.647 24.4351V44.9407H30.2938V24.4351C30.2938 23.6582 29.9852 22.9131 29.4359 22.3637C28.8865 21.8144 28.1414 21.5057 27.3645 21.5057Z" stroke="#04AFF6" stroke-width="2" stroke-linecap="round"/>
<path d="M17.8438 6.12641C17.8438 7.48601 18.3839 8.78994 19.3452 9.75132C20.3066 10.7127 21.6105 11.2528 22.9702 11.2528C24.3298 11.2528 25.6337 10.7127 26.5951 9.75132C27.5565 8.78994 28.0966 7.48601 28.0966 6.12641C28.0966 4.7668 27.5565 3.46288 26.5951 2.50149C25.6337 1.5401 24.3298 1 22.9702 1C21.6105 1 20.3066 1.5401 19.3452 2.50149C18.3839 3.46288 17.8437 4.7668 17.8438 6.12641Z" stroke="#04AFF6" stroke-width="2" stroke-linecap="round"/>
<path d="M29.3151 15.6469C28.5324 14.7279 27.5595 13.9899 26.4637 13.4838C25.3678 12.9777 24.1751 12.7156 22.9681 12.7156C21.761 12.7156 20.5683 12.9777 19.4725 13.4838C18.3766 13.9899 17.4038 14.7279 16.6211 15.6469" stroke="#04AFF6" stroke-width="2" stroke-linecap="round"/>
<path d="M33.4692 19.3087C33.4692 19.9819 33.6018 20.6485 33.8595 21.2704C34.1171 21.8924 34.4947 22.4575 34.9707 22.9336C35.4468 23.4096 36.0119 23.7872 36.6339 24.0448C37.2558 24.3025 37.9224 24.4351 38.5956 24.4351C39.2689 24.4351 39.9355 24.3025 40.5574 24.0448C41.1794 23.7872 41.7445 23.4096 42.2206 22.9336C42.6966 22.4575 43.0742 21.8924 43.3318 21.2704C43.5895 20.6485 43.722 19.9819 43.722 19.3087C43.722 17.949 43.1819 16.6451 42.2206 15.6837C41.2592 14.7224 39.9553 14.1823 38.5956 14.1823C37.236 14.1823 35.9321 14.7224 34.9707 15.6837C34.0093 16.6451 33.4692 17.949 33.4692 19.3087Z" stroke="#04AFF6" stroke-width="2" stroke-linecap="round"/>
<path d="M44.9405 28.829C43.8864 27.5897 42.4921 26.6867 40.9302 26.2316C39.3682 25.7765 37.7071 25.7895 36.1523 26.2687" stroke="#04AFF6" stroke-width="2" stroke-linecap="round"/>
<path d="M2.21875 19.3087C2.21875 20.6683 2.75885 21.9722 3.72024 22.9336C4.68163 23.895 5.98555 24.4351 7.34516 24.4351C8.70476 24.4351 10.0087 23.895 10.9701 22.9336C11.9315 21.9722 12.4716 20.6683 12.4716 19.3087C12.4716 17.949 11.9315 16.6451 10.9701 15.6837C10.0087 14.7224 8.70476 14.1823 7.34516 14.1823C5.98555 14.1823 4.68163 14.7224 3.72024 15.6837C2.75885 16.6451 2.21875 17.949 2.21875 19.3087Z" stroke="#04AFF6" stroke-width="2" stroke-linecap="round"/>
<path d="M1 28.8292C1.78429 27.9123 2.75754 27.1758 3.85304 26.6702C4.94855 26.1645 6.14042 25.9018 7.34698 25.8998C8.1712 25.9004 8.99071 26.0241 9.77836 26.2669" stroke="#04AFF6" stroke-width="2" stroke-linecap="round"/>
</svg>
