<svg width="44" height="46" viewBox="0 0 44 46" fill="none" xmlns="http://www.w3.org/2000/svg">
<path d="M15.647 14.2119C15.647 15.7657 16.2642 17.2559 17.363 18.3547C18.4617 19.4534 19.9519 20.0706 21.5057 20.0706C23.0596 20.0706 24.5498 19.4534 25.6485 18.3547C26.7472 17.2559 27.3645 15.7657 27.3645 14.2119C27.3645 12.6581 26.7472 11.1679 25.6485 10.0691C24.5498 8.97041 23.0596 8.35315 21.5057 8.35315C19.9519 8.35315 18.4617 8.97041 17.363 10.0691C16.2642 11.1679 15.647 12.6581 15.647 14.2119Z" stroke="#04AFF6" stroke-width="2" stroke-linecap="round" stroke-linejoin="round"/>
<path d="M21.5059 1.02966C25.0021 1.02966 28.355 2.4185 30.8271 4.89064C33.2993 7.36278 34.6881 10.7157 34.6881 14.2119C34.6881 20.5608 24.6657 34.7702 22.0996 38.305C22.0312 38.3982 21.9418 38.474 21.8387 38.5263C21.7355 38.5786 21.6215 38.6058 21.5059 38.6058C21.3903 38.6058 21.2763 38.5786 21.1731 38.5263C21.07 38.474 20.9806 38.3982 20.9122 38.305C18.3461 34.7702 8.32373 20.5608 8.32373 14.2119C8.32373 10.7157 9.71256 7.36278 12.1847 4.89064C14.6568 2.4185 18.0098 1.02966 21.5059 1.02966Z" stroke="#04AFF6" stroke-width="2" stroke-linecap="round" stroke-linejoin="round"/>
<path d="M33.1821 34.2957C38.5175 35.3522 42.0112 37.1157 42.0112 39.1115C42.0112 42.3475 32.8325 44.9703 21.5056 44.9703C10.1787 44.9703 1 42.3475 1 39.1115C1 37.1196 4.47814 35.36 9.78813 34.3015" stroke="#04AFF6" stroke-width="2" stroke-linecap="round" stroke-linejoin="round"/>
</svg>
