<svg width="26" height="27" viewBox="0 0 26 27" fill="none" xmlns="http://www.w3.org/2000/svg">
<path d="M23.9256 9.01807L12.8524 1.63599L1.7793 9.01807" stroke="#1A2F55" stroke-width="1.69" stroke-miterlimit="10" stroke-linecap="square"/>
<path d="M19.707 1.63599H22.8708V4.79974" stroke="#1A2F55" stroke-width="1.69" stroke-miterlimit="10" stroke-linecap="square"/>
<path d="M5.73406 19.0365C7.48136 19.0365 8.89781 17.6201 8.89781 15.8727C8.89781 14.1254 7.48136 12.709 5.73406 12.709C3.98678 12.709 2.57031 14.1254 2.57031 15.8727C2.57031 17.6201 3.98678 19.0365 5.73406 19.0365Z" stroke="#04AFF6" stroke-width="1.69" stroke-miterlimit="10" stroke-linecap="square"/>
<path d="M9.31936 22.2003C8.47569 21.2512 7.21019 20.6184 5.73378 20.6184C3.09732 20.6184 1 22.7276 1 25.364" stroke="#04AFF6" stroke-width="1.69" stroke-miterlimit="10" stroke-linecap="square"/>
<path d="M12.3354 25.3642H21.8267C22.354 25.3642 22.7757 25.0478 22.9866 24.5205L24.674 18.6147C24.8421 17.9326 24.3576 17.1384 23.5139 17.1384H15.6046C15.0773 17.1384 14.6555 17.4548 14.4446 17.9821L12.3354 25.3642Z" stroke="#1A2F55" stroke-width="1.69" stroke-miterlimit="10" stroke-linecap="square"/>
<path d="M18.6626 21.673C18.9538 21.673 19.1899 21.4369 19.1899 21.1457C19.1899 20.8545 18.9538 20.6184 18.6626 20.6184" stroke="#1A2F55" stroke-width="1.69" stroke-miterlimit="10" stroke-linecap="round"/>
<path d="M18.663 21.673C18.3718 21.673 18.1357 21.4369 18.1357 21.1457C18.1357 20.8545 18.3718 20.6184 18.663 20.6184" stroke="#1A2F55" stroke-width="1.69" stroke-miterlimit="10" stroke-linecap="round"/>
<path d="M7.58301 25.364H12.3286" stroke="#1A2F55" stroke-width="1.69" stroke-miterlimit="10" stroke-linecap="square"/>
</svg>
