<svg width="23" height="27" viewBox="0 0 23 27" fill="none" xmlns="http://www.w3.org/2000/svg">
<path d="M1.00003 4.98219V13.0118C1.00006 15.5498 1.76916 18.0282 3.20597 20.1204C4.64278 22.2125 6.67983 23.8202 9.04861 24.7313L10.1464 25.1532C10.8775 25.4344 11.6869 25.4344 12.418 25.1532L13.5158 24.7313C15.8846 23.8202 17.9216 22.2125 19.3585 20.1204C20.7953 18.0282 21.5644 15.5498 21.5644 13.0118V4.98219C21.5664 4.68003 21.4811 4.38372 21.3188 4.12891C21.1564 3.8741 20.9238 3.67162 20.649 3.54585C17.6961 2.25692 14.5042 1.60611 11.2822 1.63599C8.06032 1.60611 4.86843 2.25692 1.91541 3.54585C1.64067 3.67162 1.40812 3.8741 1.24573 4.12891C1.08334 4.38372 0.998021 4.68003 1.00003 4.98219Z" stroke="#1A2F55" stroke-width="1.69" stroke-linecap="square"/>
<path d="M14.446 11.1272H8.1185C7.24485 11.1272 6.53662 11.8355 6.53662 12.7091V17.4547C6.53662 18.3283 7.24485 19.0366 8.1185 19.0366H14.446C15.3196 19.0366 16.0279 18.3283 16.0279 17.4547V12.7091C16.0279 11.8355 15.3196 11.1272 14.446 11.1272Z" stroke="#04AFF6" stroke-width="1.69" stroke-linecap="square"/>
<path d="M11.2824 6.38159C10.4434 6.38159 9.63862 6.71491 9.04529 7.30823C8.45197 7.90155 8.11865 8.70626 8.11865 9.54534V11.1272H14.4462V9.54534C14.4462 8.70626 14.1128 7.90155 13.5195 7.30823C12.9262 6.71491 12.1214 6.38159 11.2824 6.38159Z" stroke="#04AFF6" stroke-width="1.69" stroke-linecap="square"/>
</svg>
