<svg width="25" height="25" viewBox="0 0 25 25" fill="none" xmlns="http://www.w3.org/2000/svg">
<path d="M4.45166 17.8077L3.05624 17.878C1.55715 17.9574 0.534307 16.3843 1.21504 15.0464C1.32314 14.834 1.46919 14.6432 1.64594 14.4835L2.68291 13.5479C3.54029 12.7729 3.54029 11.4267 2.68291 10.6516L1.64594 9.71596C0.531038 8.71073 0.922499 6.87555 2.35051 6.41259C2.57809 6.33887 2.81737 6.30755 3.05624 6.32041L4.45166 6.39297C5.60675 6.45203 6.55925 5.49868 6.49882 4.3436L6.42732 2.94828C6.35044 1.44898 7.92535 0.428774 9.26214 1.11183C9.4738 1.21992 9.66383 1.36577 9.82297 1.5422L10.7597 2.57917C11.534 3.43708 12.8805 3.43708 13.6549 2.57917L14.5916 1.5422C15.597 0.427508 17.4322 0.819181 17.8948 2.2474C17.968 2.4734 17.9994 2.71089 17.9871 2.94828L17.9156 4.3436C17.8553 5.49868 18.8078 6.45213 19.9629 6.39297L21.3582 6.32252C22.8574 6.24406 23.8793 7.81792 23.1977 9.15545C23.0899 9.36679 22.9445 9.55682 22.7686 9.71596L21.7316 10.6516C20.8743 11.4267 20.8743 12.7729 21.7316 13.5479L22.7686 14.4835C23.8833 15.489 23.4916 17.3241 22.0635 17.7868C21.8371 17.8602 21.5992 17.8915 21.3615 17.8792L19.9629 17.8077" stroke="#1A2F55" stroke-width="1.69" stroke-linecap="square"/>
<path d="M10.6069 24.1018H13.8074" stroke="#04AFF6" stroke-width="1.69" stroke-linecap="square"/>
<path d="M17.8077 12.9005C17.8284 8.58919 13.1741 5.87227 9.43003 8.01001C5.68594 10.1479 5.66021 15.5371 9.38362 17.7106C9.76876 17.9354 10.1794 18.1134 10.6068 18.2409V20.9016H13.8073V18.2409C16.1747 17.541 17.8015 15.3693 17.8077 12.9005Z" stroke="#04AFF6" stroke-width="1.69" stroke-linecap="square"/>
</svg>
