<svg width="26" height="26" viewBox="0 0 26 26" fill="none" xmlns="http://www.w3.org/2000/svg">
<path d="M18.4013 22.3556C18.1829 22.3556 18.0059 22.1786 18.0059 21.9602C18.0059 21.7418 18.1829 21.5647 18.4013 21.5647" stroke="#04AFF6" stroke-width="1.69"/>
<path d="M18.4014 22.3556C18.6198 22.3556 18.7968 22.1786 18.7968 21.9602C18.7968 21.7418 18.6198 21.5647 18.4014 21.5647" stroke="#04AFF6" stroke-width="1.69"/>
<path d="M18.4014 19.1916V16.0278" stroke="#04AFF6" stroke-width="1.69" stroke-linecap="round" stroke-linejoin="round"/>
<path d="M24.5317 22.0198C24.6744 22.3051 24.7419 22.6221 24.7276 22.9408C24.7134 23.2595 24.6178 23.5692 24.4501 23.8406C24.2825 24.112 24.0481 24.336 23.7694 24.4913C23.4908 24.6466 23.177 24.7281 22.858 24.728H13.9447C13.6257 24.7281 13.3119 24.6466 13.0333 24.4913C12.7546 24.336 12.5203 24.112 12.3526 23.8406C12.1849 23.5692 12.0894 23.2595 12.0751 22.9408C12.0608 22.6221 12.1283 22.3051 12.2711 22.0198L16.7277 13.1075C16.8831 12.7965 17.1219 12.5351 17.4175 12.3523C17.7131 12.1696 18.0538 12.0728 18.4014 12.0728C18.749 12.0728 19.0896 12.1696 19.3852 12.3523C19.6808 12.5351 19.9197 12.7965 20.075 13.1075L24.5317 22.0198Z" stroke="#04AFF6" stroke-width="1.69" stroke-linecap="round" stroke-linejoin="round"/>
<path d="M8.91029 21.5643H2.58279C2.37364 21.5695 2.1656 21.5321 1.97132 21.4545C1.77705 21.3769 1.60058 21.2605 1.45264 21.1126C1.3047 20.9647 1.18837 20.7881 1.11071 20.5939C1.03306 20.3996 0.995707 20.1915 1.00092 19.9824V4.2765C0.986398 3.84212 1.1448 3.41972 1.44137 3.102C1.73793 2.78428 2.14844 2.59718 2.58279 2.58179H18.4015C18.8359 2.59718 19.2464 2.78428 19.5429 3.102C19.8396 3.41972 19.998 3.84212 19.9834 4.2765V8.90929" stroke="#1A2F55" stroke-width="1.69" stroke-linecap="square" stroke-linejoin="round"/>
<path d="M5.74609 1V5.74563" stroke="#1A2F55" stroke-width="1.69" stroke-linecap="square" stroke-linejoin="round"/>
<path d="M10.4917 1V5.74563" stroke="#1A2F55" stroke-width="1.69" stroke-linecap="square" stroke-linejoin="round"/>
<path d="M15.2378 1V5.74563" stroke="#1A2F55" stroke-width="1.69" stroke-linecap="square" stroke-linejoin="round"/>
</svg>
