<svg width="26" height="27" viewBox="0 0 26 27" fill="none" xmlns="http://www.w3.org/2000/svg">
<path d="M1 7.96454V3.21786C1 2.79832 1.16666 2.39597 1.46332 2.09931C1.75998 1.80265 2.16234 1.63599 2.58188 1.63599H7.3275" stroke="#1A2F55" stroke-width="1.69" stroke-linecap="square"/>
<path d="M24.7284 7.96454V3.21786C24.7284 2.79832 24.5617 2.39597 24.2651 2.09931C23.9684 1.80265 23.566 1.63599 23.1465 1.63599H18.4009" stroke="#1A2F55" stroke-width="1.69" stroke-linecap="square"/>
<path d="M1 19.0366V23.7822C1 24.2018 1.16666 24.6041 1.46332 24.9008C1.75998 25.1975 2.16234 25.3641 2.58188 25.3641H7.3275" stroke="#1A2F55" stroke-width="1.69" stroke-linecap="square"/>
<path d="M24.7284 19.0366V23.7822C24.7284 24.2018 24.5617 24.6041 24.2651 24.9008C23.9684 25.1975 23.566 25.3641 23.1465 25.3641H18.4009" stroke="#1A2F55" stroke-width="1.69" stroke-linecap="square"/>
<path d="M10.4912 7.17262C10.4912 7.80193 10.7412 8.40546 11.1862 8.85045C11.6312 9.29544 12.2347 9.54543 12.864 9.54543C13.4933 9.54543 14.0969 9.29544 14.5419 8.85045C14.9868 8.40546 15.2368 7.80193 15.2368 7.17262C15.2368 6.54331 14.9868 5.93977 14.5419 5.49479C14.0969 5.0498 13.4933 4.7998 12.864 4.7998C12.2347 4.7998 11.6312 5.0498 11.1862 5.49479C10.7412 5.93977 10.4912 6.54331 10.4912 7.17262Z" stroke="#04AFF6" stroke-width="1.69" stroke-linecap="square"/>
<path d="M14.4462 22.2003L15.2372 17.4547H16.819V15.0819C16.819 14.033 16.4024 13.0271 15.6607 12.2855C14.9191 11.5439 13.9132 11.1272 12.8644 11.1272C11.8155 11.1272 10.8096 11.5439 10.068 12.2855C9.32632 13.0271 8.90967 14.033 8.90967 15.0819V17.4547H10.4915L11.2825 22.2003H14.4462Z" stroke="#04AFF6" stroke-width="1.69" stroke-linecap="square"/>
</svg>
