<svg width="25" height="25" viewBox="0 0 25 25" fill="none" xmlns="http://www.w3.org/2000/svg">
<path d="M12.6486 22.7891C13.5149 23.3469 14.546 23.5915 15.5705 23.482C16.595 23.3725 17.5512 22.9157 18.2801 22.1875L18.9151 21.5525C19.1968 21.2678 19.3548 20.8835 19.3548 20.483C19.3548 20.0826 19.1968 19.6983 18.9151 19.4135L16.2414 16.7565C15.9595 16.4759 15.578 16.3183 15.1803 16.3183C14.7825 16.3183 14.401 16.4759 14.1192 16.7565C13.8344 17.0382 13.4501 17.1962 13.0496 17.1962C12.6492 17.1962 12.2649 17.0382 11.9802 16.7565L7.71888 12.4953C7.43722 12.2105 7.27924 11.8262 7.27924 11.4258C7.27924 11.0253 7.43722 10.641 7.71888 10.3562C7.9995 10.0744 8.15706 9.69286 8.15706 9.29512C8.15706 8.89738 7.9995 8.51584 7.71888 8.23398L5.14541 5.56024C4.86071 5.27859 4.47639 5.12061 4.07592 5.12061C3.67544 5.12061 3.29113 5.27859 3.00642 5.56024L2.37141 6.19526C1.63013 6.91388 1.15773 7.865 1.03303 8.88989C0.908348 9.91476 1.13891 10.9514 1.68626 11.8269C4.60018 16.1529 8.3225 19.8752 12.6486 22.7891Z" stroke="#1A2F55" stroke-width="1.69" stroke-linecap="round"/>
<path d="M22.8334 6.0957H18.7157C18.4884 6.0957 18.3042 5.91144 18.3042 5.68415C18.3042 5.58448 18.3404 5.48818 18.406 5.41316L22.1509 1.13324C22.2249 1.04872 22.3318 1.00024 22.4441 1.00024C22.6591 1.00024 22.8334 1.1746 22.8334 1.38969V6.0957ZM22.8334 6.0957H23.9658M22.8334 6.0957V7.79416" stroke="#04AFF6" stroke-width="1.69" stroke-linecap="square" stroke-linejoin="round"/>
<path d="M16.1948 7.79392H11.6655V6.82883C11.6655 6.15402 12.065 5.54323 12.6832 5.27275L15.2035 4.17013C15.8057 3.90667 16.1948 3.31171 16.1948 2.65442C16.1948 1.74071 15.4541 1 14.5404 1H13.364C12.6245 1 11.9953 1.47263 11.7621 2.13232" stroke="#04AFF6" stroke-width="1.69" stroke-linecap="square" stroke-linejoin="round"/>
</svg>
