<svg width="24" height="27" viewBox="0 0 24 27" fill="none" xmlns="http://www.w3.org/2000/svg">
<path d="M23.0977 23.7822C23.0977 24.2018 22.9311 24.6041 22.6344 24.9008C22.3378 25.1975 21.9354 25.3641 21.5159 25.3641H2.58188C2.16234 25.3641 1.75998 25.1975 1.46332 24.9008C1.16666 24.6041 1 24.2018 1 23.7822V3.21786C1 2.79832 1.16666 2.39597 1.46332 2.09931C1.75998 1.80265 2.16234 1.63599 2.58188 1.63599H18.4006C18.8132 1.63603 19.2094 1.79724 19.5048 2.08524L22.6211 5.1256C22.7721 5.27305 22.892 5.44922 22.9739 5.64374C23.0557 5.83825 23.0979 6.04718 23.0977 6.25822V23.7822Z" stroke="#1A2F55" stroke-width="1.69" stroke-linecap="round" stroke-linejoin="round"/>
<path d="M12.0731 1.63599V12.7091L8.90936 10.3363L5.74561 12.7091V1.63599" stroke="#04AFF6" stroke-width="1.69" stroke-linecap="square" stroke-linejoin="round"/>
</svg>
