<svg width="26" height="30" viewBox="0 0 26 30" fill="none" xmlns="http://www.w3.org/2000/svg">
<path d="M17.6152 19.4616C17.6152 20.1961 17.907 20.9004 18.4263 21.4198C18.9457 21.9391 19.65 22.2308 20.3845 22.2308C21.1189 22.2308 21.8233 21.9391 22.3426 21.4198C22.8619 20.9004 23.1537 20.1961 23.1537 19.4616C23.1537 18.7272 22.8619 18.0228 22.3426 17.5035C21.8233 16.9841 21.1189 16.6924 20.3845 16.6924C19.65 16.6924 18.9457 16.9841 18.4263 17.5035C17.907 18.0228 17.6152 18.7272 17.6152 19.4616Z" stroke="#04AFF6" stroke-width="1.84615" stroke-linecap="round" stroke-linejoin="round"/>
<path d="M15.769 28.6923C15.769 27.4682 16.2553 26.2943 17.1209 25.4287C17.9864 24.5632 19.1604 24.0769 20.3844 24.0769C21.6085 24.0769 22.7824 24.5632 23.648 25.4287C24.5136 26.2943 24.9998 27.4682 24.9998 28.6923" stroke="#04AFF6" stroke-width="1.84615" stroke-linecap="square" stroke-linejoin="round"/>
<path d="M2.84619 19.4616C2.84619 20.1961 3.13795 20.9004 3.65728 21.4198C4.17661 21.9391 4.88098 22.2308 5.61542 22.2308C6.34987 22.2308 7.05423 21.9391 7.57356 21.4198C8.0929 20.9004 8.38465 20.1961 8.38465 19.4616C8.38465 18.7272 8.0929 18.0228 7.57356 17.5035C7.05423 16.9841 6.34987 16.6924 5.61542 16.6924C4.88098 16.6924 4.17661 16.9841 3.65728 17.5035C3.13795 18.0228 2.84619 18.7272 2.84619 19.4616Z" stroke="#04AFF6" stroke-width="1.84615" stroke-linecap="round" stroke-linejoin="round"/>
<path d="M1 28.6923C1 27.4682 1.48626 26.2943 2.35181 25.4287C3.21737 24.5632 4.39131 24.0769 5.61538 24.0769C6.83946 24.0769 8.0134 24.5632 8.87895 25.4287C9.74451 26.2943 10.2308 27.4682 10.2308 28.6923" stroke="#04AFF6" stroke-width="1.84615" stroke-linecap="square" stroke-linejoin="round"/>
<path d="M23.1539 13C23.1539 10.3071 22.0841 7.7244 20.1799 5.82018C18.2757 3.91597 15.693 2.84619 13 2.84619C10.3071 2.84619 7.7244 3.91597 5.82018 5.82018C3.91597 7.7244 2.84619 10.3071 2.84619 13H23.1539Z" stroke="#1A2F55" stroke-width="1.84615" stroke-linecap="round"/>
<path d="M13 13V22.2308" stroke="#1A2F55" stroke-width="1.84615" stroke-linecap="round"/>
<path d="M13 2.84615V1" stroke="#1A2F55" stroke-width="1.84615" stroke-linecap="round"/>
</svg>
